# Lossless merged Franka web visual
v -0.00090000 0.00942300 0.04836700
v -0.00090000 0.00942300 0.04836700
v -0.00090000 0.00942300 0.04836700
v -0.00090000 0.00942300 0.04836700
v -0.00090000 0.00942300 0.04836700
v -0.00346100 0.00942600 0.04545500
v -0.00346100 0.00942600 0.04545500
v -0.00346100 0.00942600 0.04545500
v -0.00346100 0.00942600 0.04545500
v -0.00346100 0.00942600 0.04545500
v 0.00336700 0.00942000 0.04579600
v 0.00336700 0.00942000 0.04579600
v 0.00336700 0.00942000 0.04579600
v 0.00336700 0.00942000 0.04579600
v 0.00336700 0.00942000 0.04579600
v 0.00235400 0.00942000 0.04753600
v 0.00235400 0.00942000 0.04753600
v 0.00235400 0.00942000 0.04753600
v 0.00235400 0.00942000 0.04753600
v 0.00235400 0.00942000 0.04753600
v 0.00235400 0.00942000 0.04753600
v 0.00121000 0.00942200 0.04820500
v 0.00121000 0.00942200 0.04820500
v 0.00121000 0.00942200 0.04820500
v 0.00121000 0.00942200 0.04820500
v -0.00256900 0.00941400 0.04729600
v -0.00256900 0.00941400 0.04729600
v -0.00256900 0.00941400 0.04729600
v -0.00256900 0.00941400 0.04729600
v -0.00256900 0.00941400 0.04729600
v -0.00256900 0.00941400 0.04729600
v -0.01040500 0.01838700 0.00396400
v -0.01040500 0.01838700 0.00396400
v -0.01040500 0.01838700 0.00396400
v -0.01040500 0.01838700 0.00396400
v -0.01040500 0.01838700 0.00396400
v -0.01040500 0.01838700 0.00396400
v -0.01040500 0.01838700 0.00396400
v 0.01030300 0.01967500 0.00400000
v 0.01030300 0.01967500 0.00400000
v 0.01030300 0.01967500 0.00400000
v 0.01030300 0.01967500 0.00400000
v 0.01030300 0.01967500 0.00400000
v 0.01030300 0.01967500 0.00400000
v 0.01030300 0.01967500 0.00400000
v 0.01030300 0.01967500 0.00400000
v -0.01030700 0.01970400 0.00400000
v -0.01030700 0.01970400 0.00400000
v -0.01030700 0.01970400 0.00400000
v -0.01030700 0.01970400 0.00400000
v -0.01030700 0.01970400 0.00400000
v -0.01030700 0.01970400 0.00400000
v -0.01032800 0.01741100 0.00631200
v -0.01032800 0.01741100 0.00631200
v -0.01032800 0.01741100 0.00631200
v -0.01032800 0.01741100 0.00631200
v -0.01032800 0.01741100 0.00631200
v -0.01032800 0.01741100 0.00631200
v -0.01032800 0.01741100 0.00631200
v -0.01032800 0.01741100 0.00631200
v -0.01032800 0.01741100 0.00631200
v -0.01032800 0.01741100 0.00631200
v -0.01032800 0.01741100 0.00631200
v 0.01033800 0.01741100 0.00634800
v 0.01033800 0.01741100 0.00634800
v 0.01033800 0.01741100 0.00634800
v 0.01033800 0.01741100 0.00634800
v 0.01033800 0.01741100 0.00634800
v 0.01033800 0.01741100 0.00634800
v 0.01033800 0.01741100 0.00634800
v 0.01033800 0.01741100 0.00634800
v 0.01033800 0.01741100 0.00634800
v 0.01033800 0.01741100 0.00634800
v -0.01035000 0.00256300 0.00180000
v -0.01035000 0.00256300 0.00180000
v -0.01035000 0.00256300 0.00180000
v -0.01035000 0.00256300 0.00180000
v -0.01035000 0.00256300 0.00180000
v -0.01046400 0.00807200 0.00174100
v -0.01046400 0.00807200 0.00174100
v -0.01046400 0.00807200 0.00174100
v -0.01046400 0.00807200 0.00174100
v -0.01046400 0.00807200 0.00174100
v -0.01046400 0.00807200 0.00174100
v -0.01046400 0.00807200 0.00174100
v -0.01036600 0.00252400 0.00013300
v -0.01036600 0.00252400 0.00013300
v -0.01036600 0.00252400 0.00013300
v -0.01036600 0.00252400 0.00013300
v -0.01036600 0.00252400 0.00013300
v -0.01036600 0.00252400 0.00013300
v -0.01036600 0.00252400 0.00013300
v -0.01033800 0.00802900 0.00383800
v -0.01033800 0.00802900 0.00383800
v -0.01033800 0.00802900 0.00383800
v -0.01033800 0.00802900 0.00383800
v -0.01033800 0.00802900 0.00383800
v -0.01049800 0.01066800 0.00380800
v -0.01049800 0.01066800 0.00380800
v -0.01049800 0.01066800 0.00380800
v -0.01049800 0.01066800 0.00380800
v -0.01049800 0.01066800 0.00380800
v -0.01049800 0.01066800 0.00380800
v -0.01049800 0.01066800 0.00380800
v -0.01037500 0.01157700 0.01777300
v -0.01037500 0.01157700 0.01777300
v -0.01037500 0.01157700 0.01777300
v -0.01037500 0.01157700 0.01777300
v -0.01037500 0.01157700 0.01777300
v -0.01037500 0.01157700 0.01777300
v -0.01037900 0.01279200 0.01885200
v -0.01037900 0.01279200 0.01885200
v -0.01037900 0.01279200 0.01885200
v -0.01037900 0.01279200 0.01885200
v -0.01037900 0.01279200 0.01885200
v -0.01040200 0.01741400 0.00477000
v -0.01040200 0.01741400 0.00477000
v -0.01040200 0.01741400 0.00477000
v -0.01040200 0.01741400 0.00477000
v -0.01040200 0.01741400 0.00477000
v -0.01040200 0.01741400 0.00477000
v -0.01040200 0.01741400 0.00477000
v -0.01033300 0.01621500 0.01882700
v -0.01033300 0.01621500 0.01882700
v -0.01033300 0.01621500 0.01882700
v -0.01033300 0.01621500 0.01882700
v -0.01033300 0.01621500 0.01882700
v -0.01050100 0.01703600 0.01771400
v -0.01050100 0.01703600 0.01771400
v -0.01050100 0.01703600 0.01771400
v -0.01050100 0.01703600 0.01771400
v -0.01050100 0.01703600 0.01771400
v -0.01050100 0.01703600 0.01771400
v -0.01050100 0.01703600 0.01771400
v -0.01046400 0.02075400 0.00174100
v -0.01046400 0.02075400 0.00174100
v -0.01046400 0.02075400 0.00174100
v -0.01046400 0.02075400 0.00174100
v -0.01046400 0.02075400 0.00174100
v -0.01046400 0.02075400 0.00174100
v -0.01046400 0.02075400 0.00174100
v -0.01025600 0.02079800 0.00392000
v -0.01025600 0.02079800 0.00392000
v -0.01025600 0.02079800 0.00392000
v -0.01025600 0.02079800 0.00392000
v -0.01025600 0.02079800 0.00392000
v -0.01025600 0.02079800 0.00392000
v -0.01025600 0.02079800 0.00392000
v -0.01039100 0.02630400 0.00016400
v -0.01039100 0.02630400 0.00016400
v -0.01039100 0.02630400 0.00016400
v -0.01039100 0.02630400 0.00016400
v -0.01039100 0.02630400 0.00016400
v -0.01039100 0.02630400 0.00016400
v -0.01039100 0.02630400 0.00016400
v -0.01035000 0.02626300 0.00180000
v -0.01035000 0.02626300 0.00180000
v -0.01035000 0.02626300 0.00180000
v -0.01035000 0.02626300 0.00180000
v -0.01035000 0.02626300 0.00180000
v -0.00503300 0.00596500 0.00387500
v -0.00503300 0.00596500 0.00387500
v -0.00503300 0.00596500 0.00387500
v -0.00503300 0.00596500 0.00387500
v -0.00503300 0.00596500 0.00387500
v 0.00678400 0.00787000 0.00392200
v 0.00678400 0.00787000 0.00392200
v 0.00678400 0.00787000 0.00392200
v 0.00678400 0.00787000 0.00392200
v 0.00678400 0.00787000 0.00392200
v 0.00678400 0.00787000 0.00392200
v 0.00678400 0.00787000 0.00392200
v 0.00678400 0.00787000 0.00392200
v 0.01033900 0.00802900 0.00383800
v 0.01033900 0.00802900 0.00383800
v 0.01033900 0.00802900 0.00383800
v 0.01033900 0.00802900 0.00383800
v 0.01033900 0.00802900 0.00383800
v -0.00668800 0.00782600 0.00391300
v -0.00668800 0.00782600 0.00391300
v -0.00668800 0.00782600 0.00391300
v -0.00668800 0.00782600 0.00391300
v -0.00668800 0.00782600 0.00391300
v -0.00668800 0.00782600 0.00391300
v -0.00668800 0.00782600 0.00391300
v -0.00487500 0.00258800 0.00387500
v -0.00487500 0.00258800 0.00387500
v -0.00487500 0.00258800 0.00387500
v -0.00487500 0.00258800 0.00387500
v -0.00487500 0.00258800 0.00387500
v 0.00487500 0.00253800 0.00382500
v 0.00487500 0.00253800 0.00382500
v 0.00487500 0.00253800 0.00382500
v 0.00487500 0.00253800 0.00382500
v 0.00487500 0.00253800 0.00382500
v 0.00487500 0.00253800 0.00382500
v 0.00488200 0.00631400 0.00399800
v 0.00488200 0.00631400 0.00399800
v 0.00488200 0.00631400 0.00399800
v 0.00488200 0.00631400 0.00399800
v 0.00488200 0.00631400 0.00399800
v 0.00488200 0.00631400 0.00399800
v 0.01035000 0.00256300 0.00180000
v 0.01035000 0.00256300 0.00180000
v 0.01035000 0.00256300 0.00180000
v 0.01035000 0.00256300 0.00180000
v 0.01035000 0.00256300 0.00180000
v 0.00486200 0.00248200 0.00176100
v 0.00486200 0.00248200 0.00176100
v 0.00486200 0.00248200 0.00176100
v 0.00486200 0.00248200 0.00176100
v 0.00486200 0.00248200 0.00176100
v 0.00486200 0.00248200 0.00176100
v 0.01037800 0.00253500 0.00015300
v 0.01037800 0.00253500 0.00015300
v 0.01037800 0.00253500 0.00015300
v 0.01037800 0.00253500 0.00015300
v 0.01037800 0.00253500 0.00015300
v -0.00486100 0.00248200 0.00176100
v -0.00486100 0.00248200 0.00176100
v -0.00486100 0.00248200 0.00176100
v -0.00486100 0.00248200 0.00176100
v -0.00486100 0.00248200 0.00176100
v -0.00486100 0.00248200 0.00176100
v 0.01038900 0.02628000 0.00013300
v 0.01038900 0.02628000 0.00013300
v 0.01038900 0.02628000 0.00013300
v 0.01038900 0.02628000 0.00013300
v 0.01038900 0.02628000 0.00013300
v 0.01038900 0.02628000 0.00013300
v 0.01038900 0.02628000 0.00013300
v 0.00490100 0.02634500 0.00176100
v 0.00490100 0.02634500 0.00176100
v 0.00490100 0.02634500 0.00176100
v 0.00490100 0.02634500 0.00176100
v 0.00490100 0.02634500 0.00176100
v 0.00490100 0.02634500 0.00176100
v 0.00490100 0.02634500 0.00176100
v 0.00490100 0.02634500 0.00176100
v 0.01035000 0.02626300 0.00180000
v 0.01035000 0.02626300 0.00180000
v 0.01035000 0.02626300 0.00180000
v 0.01035000 0.02626300 0.00180000
v 0.01035000 0.02626300 0.00180000
v -0.00483800 0.02629800 0.00383800
v -0.00483800 0.02629800 0.00383800
v -0.00483800 0.02629800 0.00383800
v -0.00483800 0.02629800 0.00383800
v -0.00483800 0.02629800 0.00383800
v 0.00483900 0.02625200 0.00388500
v 0.00483900 0.02625200 0.00388500
v 0.00483900 0.02625200 0.00388500
v 0.00483900 0.02625200 0.00388500
v 0.00483900 0.02625200 0.00388500
v -0.00491300 0.02631500 0.00177900
v -0.00491300 0.02631500 0.00177900
v -0.00491300 0.02631500 0.00177900
v -0.00491300 0.02631500 0.00177900
v -0.00491300 0.02631500 0.00177900
v -0.00491300 0.02631500 0.00177900
v -0.00474000 0.02308700 0.00399200
v -0.00474000 0.02308700 0.00399200
v -0.00474000 0.02308700 0.00399200
v -0.00474000 0.02308700 0.00399200
v -0.00474000 0.02308700 0.00399200
v -0.00474000 0.02308700 0.00399200
v -0.00474000 0.02308700 0.00399200
v -0.00474000 0.02308700 0.00399200
v 0.00473700 0.02311300 0.00399000
v 0.00473700 0.02311300 0.00399000
v 0.00473700 0.02311300 0.00399000
v 0.00473700 0.02311300 0.00399000
v 0.00473700 0.02311300 0.00399000
v 0.00473700 0.02311300 0.00399000
v 0.00473700 0.02311300 0.00399000
v 0.00473700 0.02311300 0.00399000
v 0.01039800 0.01140700 0.00475200
v 0.01039800 0.01140700 0.00475200
v 0.01039800 0.01140700 0.00475200
v 0.01039800 0.01140700 0.00475200
v 0.01039800 0.01140700 0.00475200
v 0.01039800 0.01140700 0.00475200
v 0.01039800 0.01140700 0.00475200
v -0.01040300 0.01144500 0.00479900
v -0.01040300 0.01144500 0.00479900
v -0.01040300 0.01144500 0.00479900
v -0.01040300 0.01144500 0.00479900
v -0.01040300 0.01144500 0.00479900
v -0.01040300 0.01144500 0.00479900
v -0.01040300 0.01144500 0.00479900
v 0.01038300 0.01261200 0.01880000
v 0.01038300 0.01261200 0.01880000
v 0.01038300 0.01261200 0.01880000
v 0.01038300 0.01261200 0.01880000
v 0.01038300 0.01261200 0.01880000
v 0.01026900 0.02076300 0.00393200
v 0.01026900 0.02076300 0.00393200
v 0.01026900 0.02076300 0.00393200
v 0.01026900 0.02076300 0.00393200
v 0.01026900 0.02076300 0.00393200
v 0.01026900 0.02076300 0.00393200
v 0.01045900 0.02080300 0.00174500
v 0.01045900 0.02080300 0.00174500
v 0.01045900 0.02080300 0.00174500
v 0.01045900 0.02080300 0.00174500
v 0.01045900 0.02080300 0.00174500
v 0.01045900 0.02080300 0.00174500
v 0.01045900 0.02080300 0.00174500
v 0.01045900 0.02080300 0.00174500
v 0.01046500 0.00807200 0.00174100
v 0.01046500 0.00807200 0.00174100
v 0.01046500 0.00807200 0.00174100
v 0.01046500 0.00807200 0.00174100
v 0.01046500 0.00807200 0.00174100
v 0.01046500 0.00807200 0.00174100
v 0.01046500 0.00807200 0.00174100
v 0.01049800 0.01065400 0.00379900
v 0.01049800 0.01065400 0.00379900
v 0.01049800 0.01065400 0.00379900
v 0.01049800 0.01065400 0.00379900
v 0.01049800 0.01065400 0.00379900
v 0.01049800 0.01065400 0.00379900
v 0.01049800 0.01065400 0.00379900
v 0.01040900 0.01161700 0.01771900
v 0.01040900 0.01161700 0.01771900
v 0.01040900 0.01161700 0.01771900
v 0.01040900 0.01161700 0.01771900
v 0.01049900 0.01723200 0.00473000
v 0.01049900 0.01723200 0.00473000
v 0.01049900 0.01723200 0.00473000
v 0.01049900 0.01723200 0.00473000
v 0.01049900 0.01723200 0.00473000
v 0.01049900 0.01723200 0.00473000
v 0.01032800 0.01605600 0.01887300
v 0.01032800 0.01605600 0.01887300
v 0.01032800 0.01605600 0.01887300
v 0.01032800 0.01605600 0.01887300
v 0.01032800 0.01605600 0.01887300
v 0.01040200 0.01821200 0.00399800
v 0.01040200 0.01821200 0.00399800
v 0.01040200 0.01821200 0.00399800
v 0.01040200 0.01821200 0.00399800
v 0.01040200 0.01821200 0.00399800
v 0.01040200 0.01821200 0.00399800
v 0.01040200 0.01821200 0.00399800
v 0.01040200 0.01821200 0.00399800
v 0.01050200 0.01703600 0.01771400
v 0.01050200 0.01703600 0.01771400
v 0.01050200 0.01703600 0.01771400
v 0.01050200 0.01703600 0.01771400
v 0.01050200 0.01703600 0.01771400
v 0.01050200 0.01703600 0.01771400
v 0.01050200 0.01703600 0.01771400
v 0.00707300 0.02100600 0.00190000
v 0.00707300 0.02100600 0.00190000
v 0.00707300 0.02100600 0.00190000
v 0.00707300 0.02100600 0.00190000
v 0.00520700 0.02254100 0.00190000
v 0.00520700 0.02254100 0.00190000
v 0.00520700 0.02254100 0.00190000
v 0.00520700 0.02254100 0.00190000
v 0.00520700 0.02254100 0.00190000
v 0.00520700 0.02254100 0.00190000
v 0.00503100 0.02334900 0.00370100
v 0.00503100 0.02334900 0.00370100
v 0.00503100 0.02334900 0.00370100
v 0.00503100 0.02334900 0.00370100
v 0.00503100 0.02334900 0.00370100
v 0.00555600 0.02213400 0.00370000
v 0.00555600 0.02213400 0.00370000
v 0.00555600 0.02213400 0.00370000
v 0.00555600 0.02213400 0.00370000
v 0.00555600 0.02213400 0.00370000
v 0.00697400 0.02102100 0.00369900
v 0.00697400 0.02102100 0.00369900
v 0.00697400 0.02102100 0.00369900
v 0.00697400 0.02102100 0.00369900
v 0.00697400 0.02102100 0.00369900
v 0.00697400 0.02102100 0.00369900
v 0.00515100 0.00613900 0.00190000
v 0.00515100 0.00613900 0.00190000
v 0.00515100 0.00613900 0.00190000
v 0.00515100 0.00613900 0.00190000
v 0.00515100 0.00613900 0.00190000
v 0.00515100 0.00613900 0.00190000
v 0.00699300 0.00781300 0.00190000
v 0.00699300 0.00781300 0.00190000
v 0.00699300 0.00781300 0.00190000
v 0.00699300 0.00781300 0.00190000
v 0.00699300 0.00781300 0.00190000
v 0.00512100 0.00596200 0.00369400
v 0.00512100 0.00596200 0.00369400
v 0.00512100 0.00596200 0.00369400
v 0.00512100 0.00596200 0.00369400
v -0.00520600 0.02254100 0.00190000
v -0.00520600 0.02254100 0.00190000
v -0.00520600 0.02254100 0.00190000
v -0.00520600 0.02254100 0.00190000
v -0.00520600 0.02254100 0.00190000
v -0.00520600 0.02254100 0.00190000
v -0.00710500 0.02099100 0.00190000
v -0.00710500 0.02099100 0.00190000
v -0.00710500 0.02099100 0.00190000
v -0.00710500 0.02099100 0.00190000
v -0.00710500 0.02099100 0.00190000
v -0.00696300 0.02103000 0.00368900
v -0.00696300 0.02103000 0.00368900
v -0.00696300 0.02103000 0.00368900
v -0.00696300 0.02103000 0.00368900
v -0.00696300 0.02103000 0.00368900
v -0.00555600 0.02213400 0.00370000
v -0.00555600 0.02213400 0.00370000
v -0.00555600 0.02213400 0.00370000
v -0.00555600 0.02213400 0.00370000
v -0.00555600 0.02213400 0.00370000
v -0.00503100 0.02334000 0.00370300
v -0.00503100 0.02334000 0.00370300
v -0.00503100 0.02334000 0.00370300
v -0.00503100 0.02334000 0.00370300
v -0.00503100 0.02334000 0.00370300
v -0.00505100 0.00564500 0.00190000
v -0.00505100 0.00564500 0.00190000
v -0.00505100 0.00564500 0.00190000
v -0.00505100 0.00564500 0.00190000
v -0.00505100 0.00564500 0.00190000
v -0.00505100 0.00564500 0.00190000
v -0.00577800 0.00696300 0.00190000
v -0.00577800 0.00696300 0.00190000
v -0.00577800 0.00696300 0.00190000
v -0.00577800 0.00696300 0.00190000
v -0.00715500 0.00784400 0.00190000
v -0.00715500 0.00784400 0.00190000
v -0.00715500 0.00784400 0.00190000
v -0.00715500 0.00784400 0.00190000
v -0.00715500 0.00784400 0.00190000
v -0.00715500 0.00784400 0.00190000
v 0.01021300 0.01028100 0.00401800
v 0.01021300 0.01028100 0.00401800
v 0.01021300 0.01028100 0.00401800
v 0.01021300 0.01028100 0.00401800
v 0.01021300 0.01028100 0.00401800
v 0.01021300 0.01028100 0.00401800
v -0.01021000 0.01025800 0.00401500
v -0.01021000 0.01025800 0.00401500
v -0.01021000 0.01025800 0.00401500
v -0.01021000 0.01025800 0.00401500
v -0.01021000 0.01025800 0.00401500
v -0.01021000 0.01025800 0.00401500
v 0.01020600 0.01744200 0.00511000
v 0.01020600 0.01744200 0.00511000
v 0.01020600 0.01744200 0.00511000
v 0.01020600 0.01744200 0.00511000
v 0.01020600 0.01744200 0.00511000
v 0.01019800 0.01733400 0.01777000
v 0.01019800 0.01733400 0.01777000
v 0.01019800 0.01733400 0.01777000
v 0.01019800 0.01733400 0.01777000
v 0.01019800 0.01733400 0.01777000
v 0.01019800 0.01733400 0.01777000
v 0.01019800 0.01733400 0.01777000
v -0.01019400 0.01735000 0.01768100
v -0.01019400 0.01735000 0.01768100
v -0.01019400 0.01735000 0.01768100
v -0.01019400 0.01735000 0.01768100
v -0.01019400 0.01735000 0.01768100
v -0.00656600 0.02081900 0.00399700
v -0.00656600 0.02081900 0.00399700
v -0.00656600 0.02081900 0.00399700
v -0.00656600 0.02081900 0.00399700
v -0.00656600 0.02081900 0.00399700
v 0.00660300 0.02079500 0.00399700
v 0.00660300 0.02079500 0.00399700
v 0.00660300 0.02079500 0.00399700
v 0.00660300 0.02079500 0.00399700
v 0.00660300 0.02079500 0.00399700
v -0.01029300 0.02316600 0.00400900
v -0.01029300 0.02316600 0.00400900
v -0.01029300 0.02316600 0.00400900
v -0.01029300 0.02316600 0.00400900
v -0.01029300 0.02316600 0.00400900
v -0.01038900 0.02522000 0.01918800
v -0.01038900 0.02522000 0.01918800
v -0.01038900 0.02522000 0.01918800
v -0.01038900 0.02522000 0.01918800
v -0.01038900 0.02522000 0.01918800
v -0.01038900 0.02522000 0.01918800
v -0.01038900 0.02522000 0.01918800
v 0.01040000 0.02525300 0.01903700
v 0.01040000 0.02525300 0.01903700
v 0.01040000 0.02525300 0.01903700
v 0.01040000 0.02525300 0.01903700
v 0.01040000 0.02525300 0.01903700
v 0.01040000 0.02525300 0.01903700
v 0.01040000 0.02525300 0.01903700
v -0.00880200 0.01565200 0.03592600
v -0.00880200 0.01565200 0.03592600
v -0.00880200 0.01565200 0.03592600
v -0.00880200 0.01565200 0.03592600
v -0.00880200 0.01565200 0.03592600
v 0.00880400 0.01566800 0.03590900
v 0.00880400 0.01566800 0.03590900
v 0.00880400 0.01566800 0.03590900
v 0.00880400 0.01566800 0.03590900
v 0.00880400 0.01566800 0.03590900
v -0.00874900 0.01441200 0.03600500
v -0.00874900 0.01441200 0.03600500
v -0.00874900 0.01441200 0.03600500
v -0.00874900 0.01441200 0.03600500
v -0.00874900 0.01441200 0.03600500
v -0.00874900 0.01441200 0.03600500
v 0.00874700 0.01441200 0.03600400
v 0.00874700 0.01441200 0.03600400
v 0.00874700 0.01441200 0.03600400
v 0.00874700 0.01441200 0.03600400
v 0.00874700 0.01441200 0.03600400
v 0.00874700 0.01441200 0.03600400
v 0.00874700 0.01441200 0.03600400
v -0.00533000 0.01430200 0.05381000
v -0.00533000 0.01430200 0.05381000
v -0.00533000 0.01430200 0.05381000
v -0.00533000 0.01430200 0.05381000
v -0.00533000 0.01430200 0.05381000
v -0.00780200 0.01423800 0.05229100
v -0.00780200 0.01423800 0.05229100
v -0.00780200 0.01423800 0.05229100
v -0.00780200 0.01423800 0.05229100
v -0.00780200 0.01423800 0.05229100
v -0.00780200 0.01423800 0.05229100
v 0.00654700 0.01429100 0.05324600
v 0.00654700 0.01429100 0.05324600
v 0.00654700 0.01429100 0.05324600
v 0.00654700 0.01429100 0.05324600
v 0.00654700 0.01429100 0.05324600
v 0.00480000 0.01433100 0.05383200
v 0.00480000 0.01433100 0.05383200
v 0.00480000 0.01433100 0.05383200
v 0.00480000 0.01433100 0.05383200
v 0.00480000 0.01433100 0.05383200
v 0.00853800 0.01441400 0.05053400
v 0.00853800 0.01441400 0.05053400
v 0.00853800 0.01441400 0.05053400
v 0.00853800 0.01441400 0.05053400
v 0.00853800 0.01441400 0.05053400
v 0.00853800 0.01441400 0.05053400
v 0.00853800 0.01441400 0.05053400
v -0.00865700 0.01441300 0.04983200
v -0.00865700 0.01441300 0.04983200
v -0.00865700 0.01441300 0.04983200
v -0.00865700 0.01441300 0.04983200
v -0.00865700 0.01441300 0.04983200
v -0.00865700 0.01441300 0.04983200
v -0.00865700 0.01441300 0.04983200
v -0.00708400 0.00950400 0.05282100
v -0.00708400 0.00950400 0.05282100
v -0.00708400 0.00950400 0.05282100
v -0.00708400 0.00950400 0.05282100
v -0.00708400 0.00950400 0.05282100
v -0.00877900 0.00946100 0.05011800
v -0.00877900 0.00946100 0.05011800
v -0.00877900 0.00946100 0.05011800
v -0.00877900 0.00946100 0.05011800
v -0.00877900 0.00946100 0.05011800
v -0.00877900 0.00946100 0.05011800
v -0.00877900 0.00946100 0.05011800
v -0.00546800 0.00949100 0.05374700
v -0.00546800 0.00949100 0.05374700
v -0.00546800 0.00949100 0.05374700
v -0.00546800 0.00949100 0.05374700
v -0.00546800 0.00949100 0.05374700
v -0.00546800 0.00949100 0.05374700
v -0.00546800 0.00949100 0.05374700
v -0.00874500 0.00941400 0.03600400
v -0.00874500 0.00941400 0.03600400
v -0.00874500 0.00941400 0.03600400
v -0.00874500 0.00941400 0.03600400
v -0.00874500 0.00941400 0.03600400
v -0.00874500 0.00941400 0.03600400
v -0.00874500 0.00941400 0.03600400
v -0.00874500 0.00941400 0.03600400
v -0.00874500 0.00941400 0.03600400
v -0.00306200 0.00942600 0.04349100
v -0.00306200 0.00942600 0.04349100
v -0.00306200 0.00942600 0.04349100
v -0.00306200 0.00942600 0.04349100
v 0.00549100 0.00941200 0.05355800
v 0.00549100 0.00941200 0.05355800
v 0.00549100 0.00941200 0.05355800
v 0.00549100 0.00941200 0.05355800
v 0.00549100 0.00941200 0.05355800
v 0.00549100 0.00941200 0.05355800
v 0.00773800 0.00953300 0.05224500
v 0.00773800 0.00953300 0.05224500
v 0.00773800 0.00953300 0.05224500
v 0.00773800 0.00953300 0.05224500
v 0.00773800 0.00953300 0.05224500
v 0.00773800 0.00953300 0.05224500
v 0.00880200 0.00950800 0.05020300
v 0.00880200 0.00950800 0.05020300
v 0.00880200 0.00950800 0.05020300
v 0.00880200 0.00950800 0.05020300
v 0.00880200 0.00950800 0.05020300
v 0.00880200 0.00950800 0.05020300
v 0.00880200 0.00950800 0.05020300
v 0.00874900 0.00941400 0.03600500
v 0.00874900 0.00941400 0.03600500
v 0.00874900 0.00941400 0.03600500
v 0.00874900 0.00941400 0.03600500
v 0.00874900 0.00941400 0.03600500
v 0.00874900 0.00941400 0.03600500
v 0.00874900 0.00941400 0.03600500
v 0.00874900 0.00941400 0.03600500
v -0.00901500 0.00804400 0.03574200
v -0.00901500 0.00804400 0.03574200
v -0.00901500 0.00804400 0.03574200
v -0.00901500 0.00804400 0.03574200
v -0.00901500 0.00804400 0.03574200
v -0.00901500 0.00804400 0.03574200
v -0.00901500 0.00804400 0.03574200
v -0.00901500 0.00804400 0.03574200
v 0.00901000 0.00812500 0.03584500
v 0.00901000 0.00812500 0.03584500
v 0.00901000 0.00812500 0.03584500
v 0.00901000 0.00812500 0.03584500
v 0.00901000 0.00812500 0.03584500
v -0.01019300 0.01739900 0.01925100
v -0.01019300 0.01739900 0.01925100
v -0.01019300 0.01739900 0.01925100
v -0.01019300 0.01739900 0.01925100
v -0.01019300 0.01739900 0.01925100
v -0.01019300 0.01739900 0.01925100
v -0.01019300 0.01739900 0.01925100
v 0.00896200 0.00802100 0.03557900
v 0.00896200 0.00802100 0.03557900
v 0.00896200 0.00802100 0.03557900
v 0.00896200 0.00802100 0.03557900
v 0.00896200 0.00802100 0.03557900
v 0.00896200 0.00802100 0.03557900
v 0.00896200 0.00802100 0.03557900
v 0.00896200 0.00802100 0.03557900
v 0.01018800 0.01739300 0.01925300
v 0.01018800 0.01739300 0.01925300
v 0.01018800 0.01739300 0.01925300
v 0.01018800 0.01739300 0.01925300
v 0.01018800 0.01739300 0.01925300
v -0.01036200 0.02530500 0.00614400
v -0.01036200 0.02530500 0.00614400
v -0.01036200 0.02530500 0.00614400
v -0.01036200 0.02530500 0.00614400
v -0.01036200 0.02530500 0.00614400
v -0.01036200 0.02530500 0.00614400
v -0.01036200 0.02530500 0.00614400
v -0.01036200 0.02530500 0.00614400
v 0.01038200 0.02526200 0.00611900
v 0.01038200 0.02526200 0.00611900
v 0.01038200 0.02526200 0.00611900
v 0.01038200 0.02526200 0.00611900
v 0.01038200 0.02526200 0.00611900
v 0.01038200 0.02526200 0.00611900
v 0.01029400 0.02316600 0.00400900
v 0.01029400 0.02316600 0.00400900
v 0.01029400 0.02316600 0.00400900
v 0.01029400 0.02316600 0.00400900
v 0.01029400 0.02316600 0.00400900
v -0.01047900 0.01767800 0.01932400
v -0.01047900 0.01767800 0.01932400
v -0.01047900 0.01767800 0.01932400
v -0.01047900 0.01767800 0.01932400
v -0.01047900 0.01767800 0.01932400
v -0.00905500 0.01546800 0.03570800
v -0.00905500 0.01546800 0.03570800
v -0.00905500 0.01546800 0.03570800
v -0.00905500 0.01546800 0.03570800
v -0.00905500 0.01546800 0.03570800
v -0.00905500 0.01546800 0.03570800
v -0.00904900 0.00971200 0.03573500
v -0.00904900 0.00971200 0.03573500
v -0.00904900 0.00971200 0.03573500
v -0.00904900 0.00971200 0.03573500
v -0.00904900 0.00971200 0.03573500
v -0.00905500 0.01410500 0.03572800
v -0.00905500 0.01410500 0.03572800
v -0.00905500 0.01410500 0.03572800
v -0.00905500 0.01410500 0.03572800
v -0.00905500 0.01410500 0.03572800
v -0.00905500 0.01410500 0.03572800
v 0.00897300 0.01411300 0.04968100
v 0.00897300 0.01411300 0.04968100
v 0.00897300 0.01411300 0.04968100
v 0.00897300 0.01411300 0.04968100
v 0.00897300 0.01411300 0.04968100
v 0.00897300 0.01411300 0.04968100
v 0.00905000 0.00971600 0.03573600
v 0.00905000 0.00971600 0.03573600
v 0.00905000 0.00971600 0.03573600
v 0.00905000 0.00971600 0.03573600
v 0.00905000 0.00971600 0.03573600
v 0.00905000 0.00971600 0.03573600
v 0.00905600 0.01546800 0.03570800
v 0.00905600 0.01546800 0.03570800
v 0.00905600 0.01546800 0.03570800
v 0.00905600 0.01546800 0.03570800
v 0.00905600 0.01546800 0.03570800
v 0.00905600 0.01546800 0.03570800
v 0.00905600 0.01410900 0.03572700
v 0.00905600 0.01410900 0.03572700
v 0.00905600 0.01410900 0.03572700
v 0.00905600 0.01410900 0.03572700
v 0.00905600 0.01410900 0.03572700
v 0.01048000 0.01767800 0.01932400
v 0.01048000 0.01767800 0.01932400
v 0.01048000 0.01767800 0.01932400
v 0.01048000 0.01767800 0.01932400
v 0.01048000 0.01767800 0.01932400
v -0.00839500 0.00971300 0.05146100
v -0.00839500 0.00971300 0.05146100
v -0.00839500 0.00971300 0.05146100
v -0.00839500 0.00971300 0.05146100
v -0.00894500 0.01411000 0.04996000
v -0.00894500 0.01411000 0.04996000
v -0.00894500 0.01411000 0.04996000
v -0.00894500 0.01411000 0.04996000
v -0.00894500 0.01411000 0.04996000
v -0.00894500 0.01411000 0.04996000
v 0.00819700 0.01411500 0.05185300
v 0.00819700 0.01411500 0.05185300
v 0.00819700 0.01411500 0.05185300
v 0.00819700 0.01411500 0.05185300
v 0.00819700 0.01411500 0.05185300
v 0.00553200 0.00971700 0.05385800
v 0.00553200 0.00971700 0.05385800
v 0.00553200 0.00971700 0.05385800
v 0.00553200 0.00971700 0.05385800
v 0.00553200 0.00971700 0.05385800
v 0.00553200 0.00971700 0.05385800
v -0.00195400 0.00941800 0.04215600
v -0.00195400 0.00941800 0.04215600
v -0.00195400 0.00941800 0.04215600
v -0.00195400 0.00941800 0.04215600
v 0.00316800 0.00942500 0.04377200
v 0.00316800 0.00942500 0.04377200
v 0.00316800 0.00942500 0.04377200
v 0.00316800 0.00942500 0.04377200
v -0.00000200 0.01280500 0.04499400
v -0.00000200 0.01280500 0.04499400
v -0.00000200 0.01280500 0.04499400
v -0.00000200 0.01280500 0.04499400
v -0.00000200 0.01280500 0.04499400
v -0.00000200 0.01280500 0.04499400
v -0.00000200 0.01280500 0.04499400
v -0.00000200 0.01280500 0.04499400
v -0.00000200 0.01280500 0.04499400
v -0.00000200 0.01280500 0.04499400
v -0.00000200 0.01280500 0.04499400
v 0.00014400 0.00943300 0.04151100
v 0.00014400 0.00943300 0.04151100
v 0.00014400 0.00943300 0.04151100
v 0.00014400 0.00943300 0.04151100
v 0.00014400 0.00943300 0.04151100
v 0.00194300 0.00942200 0.04219400
v 0.00194300 0.00942200 0.04219400
v 0.00194300 0.00942200 0.04219400
v 0.00194300 0.00942200 0.04219400
v -0.00982300 0.01750200 0.01110800
v -0.00982300 0.01750200 0.01110800
v -0.00982300 0.01750200 0.01110800
v -0.00982300 0.01750200 0.01110800
v -0.00982300 0.01750200 0.01110800
v -0.00982300 0.01750200 0.01110800
v -0.00897000 0.01753500 0.00949800
v -0.00897000 0.01753500 0.00949800
v -0.00897000 0.01753500 0.00949800
v -0.00897000 0.01753500 0.00949800
v -0.00897000 0.01753500 0.00949800
v -0.00897000 0.01753500 0.00949800
v -0.00838200 0.02041300 0.00897800
v -0.00838200 0.02041300 0.00897800
v -0.00838200 0.02041300 0.00897800
v -0.00838200 0.02041300 0.00897800
v -0.00838200 0.02041300 0.00897800
v -0.00698700 0.02041300 0.01564200
v -0.00698700 0.02041300 0.01564200
v -0.00698700 0.02041300 0.01564200
v -0.00698700 0.02041300 0.01564200
v -0.00758100 0.01771300 0.01545900
v -0.00758100 0.01771300 0.01545900
v -0.00758100 0.01771300 0.01545900
v -0.00758100 0.01771300 0.01545900
v -0.00758100 0.01771300 0.01545900
v -0.00758100 0.01771300 0.01545900
v -0.00790300 0.01771300 0.00874200
v -0.00790300 0.01771300 0.00874200
v -0.00790300 0.01771300 0.00874200
v -0.00790300 0.01771300 0.00874200
v -0.00893700 0.02041300 0.01448600
v -0.00893700 0.02041300 0.01448600
v -0.00893700 0.02041300 0.01448600
v -0.00893700 0.02041300 0.01448600
v -0.00893700 0.02041300 0.01448600
v -0.00616600 0.01771900 0.00820700
v -0.00616600 0.01771900 0.00820700
v -0.00616600 0.01771900 0.00820700
v -0.00616600 0.01771900 0.00820700
v -0.00616600 0.01771900 0.00820700
v -0.00616600 0.01771900 0.00820700
v -0.00600000 0.02041300 0.00820800
v -0.00600000 0.02041300 0.00820800
v -0.00600000 0.02041300 0.00820800
v -0.00600000 0.02041300 0.00820800
v -0.00901000 0.01771300 0.01427400
v -0.00901000 0.01771300 0.01427400
v -0.00901000 0.01771300 0.01427400
v -0.00901000 0.01771300 0.01427400
v -0.00901000 0.01771300 0.01427400
v -0.00971200 0.01771800 0.01274300
v -0.00971200 0.01771800 0.01274300
v -0.00971200 0.01771800 0.01274300
v -0.00971200 0.01771800 0.01274300
v -0.00971200 0.01771800 0.01274300
v -0.00982900 0.02041300 0.01161400
v -0.00982900 0.02041300 0.01161400
v -0.00982900 0.02041300 0.01161400
v -0.00982900 0.02041300 0.01161400
v -0.00982900 0.02041300 0.01161400
v -0.00816400 0.01741400 0.01548900
v -0.00816400 0.01741400 0.01548900
v -0.00816400 0.01741400 0.01548900
v -0.00816400 0.01741400 0.01548900
v -0.00816400 0.01741400 0.01548900
v -0.00216000 0.01771400 0.01179000
v -0.00216000 0.01771400 0.01179000
v -0.00216000 0.01771400 0.01179000
v -0.00216000 0.01771400 0.01179000
v -0.00216000 0.01771400 0.01179000
v -0.00216000 0.01771400 0.01179000
v -0.00191700 0.01741500 0.01288000
v -0.00191700 0.01741500 0.01288000
v -0.00191700 0.01741500 0.01288000
v -0.00191700 0.01741500 0.01288000
v -0.00980500 0.01741400 0.01357600
v -0.00980500 0.01741400 0.01357600
v -0.00980500 0.01741400 0.01357600
v -0.00980500 0.01741400 0.01357600
v -0.00276100 0.01771300 0.01393600
v -0.00276100 0.01771300 0.01393600
v -0.00276100 0.01771300 0.01393600
v -0.00276100 0.01771300 0.01393600
v -0.00276100 0.01771300 0.01393600
v -0.00345300 0.01741300 0.01519800
v -0.00345300 0.01741300 0.01519800
v -0.00345300 0.01741300 0.01519800
v -0.00345300 0.01741300 0.01519800
v -0.00345300 0.01741300 0.01519800
v -0.00345300 0.01741300 0.01519800
v -0.00345300 0.01741300 0.01519800
v -0.00345300 0.01741300 0.01519800
v -0.00375600 0.01771300 0.01503300
v -0.00375600 0.01771300 0.01503300
v -0.00375600 0.01771300 0.01503300
v -0.00375600 0.01771300 0.01503300
v -0.00375600 0.01771300 0.01503300
v -0.00541900 0.01771900 0.01575200
v -0.00541900 0.01771900 0.01575200
v -0.00541900 0.01771900 0.01575200
v -0.00541900 0.01771900 0.01575200
v -0.00541900 0.01771900 0.01575200
v -0.00541900 0.01771900 0.01575200
v -0.00565900 0.01741400 0.01611200
v -0.00565900 0.01741400 0.01611200
v -0.00565900 0.01741400 0.01611200
v -0.00565900 0.01741400 0.01611200
v -0.00565900 0.01741400 0.01611200
v -0.00565900 0.01741400 0.01611200
v -0.00565900 0.01741400 0.01611200
v -0.00253400 0.01741400 0.00976100
v -0.00253400 0.01741400 0.00976100
v -0.00253400 0.01741400 0.00976100
v -0.00253400 0.01741400 0.00976100
v -0.00253400 0.01741400 0.00976100
v -0.00253400 0.01741400 0.00976100
v -0.00744200 0.01741400 0.00815600
v -0.00744200 0.01741400 0.00815600
v -0.00744200 0.01741400 0.00815600
v -0.00744200 0.01741400 0.00815600
v -0.00744200 0.01741400 0.00815600
v -0.00744200 0.01741400 0.00815600
v -0.00480000 0.01741400 0.00804400
v -0.00480000 0.01741400 0.00804400
v -0.00480000 0.01741400 0.00804400
v -0.00480000 0.01741400 0.00804400
v -0.00480000 0.01741400 0.00804400
v -0.00424100 0.01770800 0.00864700
v -0.00424100 0.01770800 0.00864700
v -0.00424100 0.01770800 0.00864700
v -0.00424100 0.01770800 0.00864700
v -0.00424100 0.01770800 0.00864700
v -0.00424100 0.01770800 0.00864700
v -0.00298900 0.01771300 0.00972600
v -0.00298900 0.01771300 0.00972600
v -0.00298900 0.01771300 0.00972600
v -0.00298900 0.01771300 0.00972600
v -0.00298900 0.01771300 0.00972600
v -0.00306200 0.02041300 0.01448600
v -0.00306200 0.02041300 0.01448600
v -0.00306200 0.02041300 0.01448600
v -0.00306200 0.02041300 0.01448600
v -0.00306200 0.02041300 0.01448600
v -0.00361700 0.02041300 0.00897800
v -0.00361700 0.02041300 0.00897800
v -0.00361700 0.02041300 0.00897800
v -0.00361700 0.02041300 0.00897800
v -0.00524500 0.02041300 0.01571600
v -0.00524500 0.02041300 0.01571600
v -0.00524500 0.02041300 0.01571600
v -0.00524500 0.02041300 0.01571600
v -0.00217100 0.02041300 0.01161400
v -0.00217100 0.02041300 0.01161400
v -0.00217100 0.02041300 0.01161400
v -0.00217100 0.02041300 0.01161400
v 0.00247200 0.01753800 0.01027400
v 0.00247200 0.01753800 0.01027400
v 0.00247200 0.01753800 0.01027400
v 0.00247200 0.01753800 0.01027400
v 0.00247200 0.01753800 0.01027400
v 0.00247200 0.01753800 0.01027400
v 0.00361800 0.02041300 0.00897800
v 0.00361800 0.02041300 0.00897800
v 0.00361800 0.02041300 0.00897800
v 0.00361800 0.02041300 0.00897800
v 0.00361800 0.02041300 0.00897800
v 0.00501300 0.02041300 0.01564200
v 0.00501300 0.02041300 0.01564200
v 0.00501300 0.02041300 0.01564200
v 0.00501300 0.02041300 0.01564200
v 0.00441900 0.01771300 0.01545900
v 0.00441900 0.01771300 0.01545900
v 0.00441900 0.01771300 0.01545900
v 0.00441900 0.01771300 0.01545900
v 0.00441900 0.01771300 0.01545900
v 0.00441900 0.01771300 0.01545900
v 0.00409700 0.01771300 0.00874200
v 0.00409700 0.01771300 0.00874200
v 0.00409700 0.01771300 0.00874200
v 0.00409700 0.01771300 0.00874200
v 0.00306300 0.02041300 0.01448600
v 0.00306300 0.02041300 0.01448600
v 0.00306300 0.02041300 0.01448600
v 0.00306300 0.02041300 0.01448600
v 0.00306300 0.02041300 0.01448600
v 0.00583400 0.01771900 0.00820700
v 0.00583400 0.01771900 0.00820700
v 0.00583400 0.01771900 0.00820700
v 0.00583400 0.01771900 0.00820700
v 0.00583400 0.01771900 0.00820700
v 0.00583400 0.01771900 0.00820700
v 0.00600000 0.02041300 0.00820800
v 0.00600000 0.02041300 0.00820800
v 0.00600000 0.02041300 0.00820800
v 0.00600000 0.02041300 0.00820800
v 0.00299000 0.01771300 0.01427400
v 0.00299000 0.01771300 0.01427400
v 0.00299000 0.01771300 0.01427400
v 0.00299000 0.01771300 0.01427400
v 0.00215800 0.01760300 0.01248200
v 0.00215800 0.01760300 0.01248200
v 0.00215800 0.01760300 0.01248200
v 0.00215800 0.01760300 0.01248200
v 0.00215800 0.01760300 0.01248200
v 0.00217100 0.02041300 0.01161400
v 0.00217100 0.02041300 0.01161400
v 0.00217100 0.02041300 0.01161400
v 0.00217100 0.02041300 0.01161400
v 0.00277900 0.01741500 0.01464400
v 0.00277900 0.01741500 0.01464400
v 0.00277900 0.01741500 0.01464400
v 0.00277900 0.01741500 0.01464400
v 0.00277900 0.01741500 0.01464400
v 0.00277900 0.01741500 0.01464400
v 0.00277900 0.01741500 0.01464400
v 0.00984000 0.01771400 0.01179000
v 0.00984000 0.01771400 0.01179000
v 0.00984000 0.01771400 0.01179000
v 0.00984000 0.01771400 0.01179000
v 0.00984000 0.01771400 0.01179000
v 0.00984000 0.01771400 0.01179000
v 0.00996700 0.01741400 0.01086400
v 0.00996700 0.01741400 0.01086400
v 0.00996700 0.01741400 0.01086400
v 0.00996700 0.01741400 0.01086400
v 0.00984400 0.01741400 0.01344200
v 0.00984400 0.01741400 0.01344200
v 0.00984400 0.01741400 0.01344200
v 0.00984400 0.01741400 0.01344200
v 0.00984400 0.01741400 0.01344200
v 0.00984400 0.01741400 0.01344200
v 0.00923900 0.01771300 0.01393600
v 0.00923900 0.01771300 0.01393600
v 0.00923900 0.01771300 0.01393600
v 0.00923900 0.01771300 0.01393600
v 0.00836300 0.01759400 0.01505000
v 0.00836300 0.01759400 0.01505000
v 0.00836300 0.01759400 0.01505000
v 0.00836300 0.01759400 0.01505000
v 0.00836300 0.01759400 0.01505000
v 0.00836300 0.01759400 0.01505000
v 0.00658100 0.01771900 0.01575200
v 0.00658100 0.01771900 0.01575200
v 0.00658100 0.01771900 0.01575200
v 0.00658100 0.01771900 0.01575200
v 0.00658100 0.01771900 0.01575200
v 0.00593400 0.01741500 0.01617600
v 0.00593400 0.01741500 0.01617600
v 0.00593400 0.01741500 0.01617600
v 0.00593400 0.01741500 0.01617600
v 0.00593400 0.01741500 0.01617600
v 0.00593400 0.01741500 0.01617600
v 0.00593400 0.01741500 0.01617600
v 0.00659900 0.01741300 0.00796600
v 0.00659900 0.01741300 0.00796600
v 0.00659900 0.01741300 0.00796600
v 0.00659900 0.01741300 0.00796600
v 0.00659900 0.01741300 0.00796600
v 0.00659900 0.01741300 0.00796600
v 0.00849600 0.01741400 0.00874000
v 0.00849600 0.01741400 0.00874000
v 0.00849600 0.01741400 0.00874000
v 0.00849600 0.01741400 0.00874000
v 0.00849600 0.01741400 0.00874000
v 0.00849600 0.01741400 0.00874000
v 0.00416700 0.01741500 0.00827700
v 0.00416700 0.01741500 0.00827700
v 0.00416700 0.01741500 0.00827700
v 0.00416700 0.01741500 0.00827700
v 0.00416700 0.01741500 0.00827700
v 0.00775900 0.01770800 0.00864700
v 0.00775900 0.01770800 0.00864700
v 0.00775900 0.01770800 0.00864700
v 0.00775900 0.01770800 0.00864700
v 0.00775900 0.01770800 0.00864700
v 0.00775900 0.01770800 0.00864700
v 0.00901100 0.01771300 0.00972600
v 0.00901100 0.01771300 0.00972600
v 0.00901100 0.01771300 0.00972600
v 0.00901100 0.01771300 0.00972600
v 0.00901100 0.01771300 0.00972600
v 0.00901100 0.01771300 0.00972600
v 0.00893800 0.02041300 0.01448600
v 0.00893800 0.02041300 0.01448600
v 0.00893800 0.02041300 0.01448600
v 0.00893800 0.02041300 0.01448600
v 0.00893800 0.02041300 0.01448600
v 0.00838300 0.02041300 0.00897800
v 0.00838300 0.02041300 0.00897800
v 0.00838300 0.02041300 0.00897800
v 0.00838300 0.02041300 0.00897800
v 0.00675500 0.02041300 0.01571600
v 0.00675500 0.02041300 0.01571600
v 0.00675500 0.02041300 0.01571600
v 0.00675500 0.02041300 0.01571600
v 0.00982900 0.02041300 0.01161400
v 0.00982900 0.02041300 0.01161400
v 0.00982900 0.02041300 0.01161400
v 0.00982900 0.02041300 0.01161400
v 0.00299900 0.01089700 0.04464500
v 0.00299900 0.01089700 0.04464500
v 0.00299900 0.01089700 0.04464500
v 0.00299900 0.01089700 0.04464500
v 0.00299900 0.01089700 0.04464500
v 0.00299900 0.01089700 0.04464500
v 0.00299900 0.01089700 0.04464500
v 0.00036000 0.01090000 0.04796800
v 0.00036000 0.01090000 0.04796800
v 0.00036000 0.01090000 0.04796800
v 0.00036000 0.01090000 0.04796800
v 0.00036000 0.01090000 0.04796800
v 0.00036000 0.01090000 0.04796800
v 0.00036000 0.01090000 0.04796800
v 0.00233900 0.01088500 0.04695500
v 0.00233900 0.01088500 0.04695500
v 0.00233900 0.01088500 0.04695500
v 0.00233900 0.01088500 0.04695500
v 0.00233900 0.01088500 0.04695500
v 0.00234600 0.01088700 0.04317900
v 0.00234600 0.01088700 0.04317900
v 0.00234600 0.01088700 0.04317900
v 0.00234600 0.01088700 0.04317900
v 0.00102600 0.01089500 0.04215000
v 0.00102600 0.01089500 0.04215000
v 0.00102600 0.01089500 0.04215000
v 0.00102600 0.01089500 0.04215000
v 0.00102600 0.01089500 0.04215000
v 0.00102600 0.01089500 0.04215000
v 0.00102600 0.01089500 0.04215000
v 0.00200000 0.01089700 0.04408600
v 0.00200000 0.01089700 0.04408600
v 0.00200000 0.01089700 0.04408600
v 0.00200000 0.01089700 0.04408600
v 0.00200000 0.01089700 0.04408600
v 0.00200000 0.01089700 0.04408600
v 0.00200000 0.01089700 0.04408600
v 0.00082700 0.01089100 0.04701900
v 0.00082700 0.01089100 0.04701900
v 0.00082700 0.01089100 0.04701900
v 0.00082700 0.01089100 0.04701900
v 0.00082700 0.01089100 0.04701900
v 0.00205100 0.01087000 0.04582400
v 0.00205100 0.01087000 0.04582400
v 0.00205100 0.01087000 0.04582400
v 0.00205100 0.01087000 0.04582400
v 0.00205100 0.01087000 0.04582400
v 0.00205100 0.01087000 0.04582400
v 0.00205100 0.01087000 0.04582400
v 0.00098500 0.01088800 0.04306600
v 0.00098500 0.01088800 0.04306600
v 0.00098500 0.01088800 0.04306600
v 0.00098500 0.01088800 0.04306600
v -0.00181900 0.00943800 0.04387900
v -0.00181900 0.00943800 0.04387900
v -0.00181900 0.00943800 0.04387900
v -0.00181900 0.00943800 0.04387900
v -0.00181900 0.00943800 0.04387900
v -0.00001100 0.00943000 0.04711700
v -0.00001100 0.00943000 0.04711700
v -0.00001100 0.00943000 0.04711700
v -0.00001100 0.00943000 0.04711700
v -0.00001100 0.00943000 0.04711700
v -0.00001100 0.00943000 0.04711700
v -0.00069800 0.00943200 0.04301600
v -0.00069800 0.00943200 0.04301600
v -0.00069800 0.00943200 0.04301600
v -0.00069800 0.00943200 0.04301600
v -0.00069800 0.00943200 0.04301600
v -0.00146500 0.00942900 0.04655200
v -0.00146500 0.00942900 0.04655200
v -0.00146500 0.00942900 0.04655200
v -0.00146500 0.00942900 0.04655200
v -0.00146500 0.00942900 0.04655200
v -0.00146500 0.00942900 0.04655200
v -0.00208600 0.00943100 0.04526900
v -0.00208600 0.00943100 0.04526900
v -0.00208600 0.00943100 0.04526900
v -0.00208600 0.00943100 0.04526900
v -0.00208600 0.00943100 0.04526900
v -0.00015600 0.00938800 0.04323400
v -0.00015600 0.00938800 0.04323400
v -0.00015600 0.00938800 0.04323400
v -0.00015600 0.00938800 0.04323400
v -0.00015600 0.00938800 0.04323400
v -0.00015600 0.00938800 0.04323400
v 0.00129800 0.00939100 0.04378800
v 0.00129800 0.00939100 0.04378800
v 0.00129800 0.00939100 0.04378800
v 0.00129800 0.00939100 0.04378800
v 0.00129800 0.00939100 0.04378800
v 0.00015600 0.00938800 0.04676600
v 0.00015600 0.00938800 0.04676600
v 0.00015600 0.00938800 0.04676600
v 0.00015600 0.00938800 0.04676600
v 0.00015600 0.00938800 0.04676600
v 0.00015600 0.00938800 0.04676600
v 0.00174100 0.00938900 0.04558600
v 0.00174100 0.00938900 0.04558600
v 0.00174100 0.00938900 0.04558600
v 0.00174100 0.00938900 0.04558600
v 0.00174100 0.00938900 0.04558600
v 0.00174100 0.00938900 0.04558600
v -0.00288700 0.00943500 0.04399500
v -0.00288700 0.00943500 0.04399500
v -0.00288700 0.00943500 0.04399500
v -0.00288700 0.00943500 0.04399500
v -0.00288700 0.00943500 0.04399500
v -0.00288700 0.00943500 0.04399500
v -0.00178500 0.00943400 0.04249600
v -0.00178500 0.00943400 0.04249600
v -0.00178500 0.00943400 0.04249600
v -0.00178500 0.00943400 0.04249600
v -0.00178500 0.00943400 0.04249600
v 0.00052100 0.00943400 0.04803000
v 0.00052100 0.00943400 0.04803000
v 0.00052100 0.00943400 0.04803000
v 0.00052100 0.00943400 0.04803000
v 0.00052100 0.00943400 0.04803000
v 0.00052100 0.00943400 0.04803000
v 0.00052100 0.00943400 0.04803000
v -0.00179200 0.00943400 0.04755100
v -0.00179200 0.00943400 0.04755100
v -0.00179200 0.00943400 0.04755100
v -0.00179200 0.00943400 0.04755100
v -0.00179200 0.00943400 0.04755100
v -0.00179200 0.00943400 0.04755100
v -0.00179200 0.00943400 0.04755100
v 0.00001500 0.00943800 0.04194200
v 0.00001500 0.00943800 0.04194200
v 0.00001500 0.00943800 0.04194200
v 0.00001500 0.00943800 0.04194200
v 0.00001500 0.00943800 0.04194200
v 0.00001500 0.00943800 0.04194200
v 0.00001500 0.00943800 0.04194200
v 0.00001500 0.00943800 0.04194200
v -0.00297500 0.00943700 0.04570300
v -0.00297500 0.00943700 0.04570300
v -0.00297500 0.00943700 0.04570300
v -0.00297500 0.00943700 0.04570300
v -0.00297500 0.00943700 0.04570300
v -0.00297500 0.00943700 0.04570300
v -0.00297500 0.00943700 0.04570300
v -0.00893100 0.00931400 0.03609000
v -0.00893100 0.00931400 0.03609000
v -0.00893100 0.00931400 0.03609000
v -0.00893100 0.00931400 0.03609000
v -0.00893100 0.00931400 0.03609000
v -0.00893100 0.00931400 0.03609000
v -0.00893100 0.00931400 0.03609000
v -0.00893100 0.00931400 0.03609000
v -0.00893100 0.00931400 0.03609000
v -0.00893100 0.00931400 0.03609000
v -0.00893100 0.00931400 0.03609000
v 0.00893100 0.00931400 0.03609000
v 0.00893100 0.00931400 0.03609000
v 0.00893100 0.00931400 0.03609000
v 0.00893100 0.00931400 0.03609000
v 0.00893100 0.00931400 0.03609000
v 0.00893100 0.00931400 0.03609000
v 0.00893100 0.00931400 0.03609000
v 0.00893100 0.00931400 0.03609000
v 0.00893100 0.00931400 0.03609000
v 0.00893100 0.00931400 0.03609000
v -0.00086000 0.00191300 0.04356500
v -0.00086000 0.00191300 0.04356500
v -0.00086000 0.00191300 0.04356500
v -0.00086000 0.00191300 0.04356500
v -0.00086000 0.00191300 0.04356500
v -0.00174000 0.00938900 0.04441400
v -0.00174000 0.00938900 0.04441400
v -0.00174000 0.00938900 0.04441400
v -0.00174000 0.00938900 0.04441400
v -0.00174000 0.00938900 0.04441400
v -0.00174000 0.00938900 0.04441400
v -0.00174000 0.00938900 0.04441400
v -0.00174000 0.00938900 0.04441400
v -0.00152600 0.00191300 0.04591800
v -0.00152600 0.00191300 0.04591800
v -0.00152600 0.00191300 0.04591800
v -0.00152600 0.00191300 0.04591800
v -0.00152600 0.00191300 0.04591800
v -0.00129700 0.00939100 0.04621200
v -0.00129700 0.00939100 0.04621200
v -0.00129700 0.00939100 0.04621200
v -0.00129700 0.00939100 0.04621200
v -0.00129700 0.00939100 0.04621200
v -0.00097000 0.01088500 0.04216800
v -0.00097000 0.01088500 0.04216800
v -0.00097000 0.01088500 0.04216800
v -0.00097000 0.01088500 0.04216800
v -0.00097000 0.01088500 0.04216800
v 0.00484300 -0.00001700 0.05371700
v 0.00484300 -0.00001700 0.05371700
v 0.00484300 -0.00001700 0.05371700
v 0.00484300 -0.00001700 0.05371700
v 0.00484300 -0.00001700 0.05371700
v 0.00484300 -0.00001700 0.05371700
v 0.00875700 -0.00003000 0.04727200
v 0.00875700 -0.00003000 0.04727200
v 0.00875700 -0.00003000 0.04727200
v 0.00875900 -0.00002900 0.04272800
v 0.00875900 -0.00002900 0.04272800
v 0.00875900 -0.00002900 0.04272800
v 0.00875900 -0.00002900 0.04272800
v -0.00226800 -0.00003600 0.05374600
v -0.00226800 -0.00003600 0.05374600
v -0.00226800 -0.00003600 0.05374600
v -0.00870900 -0.00001000 0.04993900
v -0.00870900 -0.00001000 0.04993900
v -0.00870900 -0.00001000 0.04993900
v -0.00870900 -0.00001000 0.04993900
v -0.00870900 -0.00001000 0.04993900
v -0.00875800 -0.00002900 0.04727200
v -0.00875800 -0.00002900 0.04727200
v -0.00875800 -0.00002900 0.04727200
v -0.00227400 -0.00003700 0.03625000
v -0.00227400 -0.00003700 0.03625000
v -0.00227400 -0.00003700 0.03625000
v -0.00227400 -0.00003700 0.03625000
v -0.00227400 -0.00003700 0.03625000
v -0.00224400 -0.00007500 0.04275600
v -0.00224400 -0.00007500 0.04275600
v -0.00224400 -0.00007500 0.04275600
v -0.00224400 -0.00007500 0.04275600
v -0.00224400 -0.00007500 0.04275600
v -0.00875900 -0.00003000 0.04272400
v -0.00875900 -0.00003000 0.04272400
v -0.00875900 -0.00003000 0.04272400
v -0.00875900 -0.00003000 0.04272400
v -0.00875900 -0.00003000 0.04272400
v 0.00226300 -0.00008400 0.04726300
v 0.00226300 -0.00008400 0.04726300
v 0.00226300 -0.00008400 0.04726300
v 0.00226300 -0.00008400 0.04726300
v 0.00226300 -0.00008400 0.04726300
v 0.00226300 -0.00008400 0.04726300
v 0.00226300 -0.00008400 0.04726300
v 0.00226300 -0.00008400 0.04726300
v 0.00226900 -0.00003600 0.05374600
v 0.00226900 -0.00003600 0.05374600
v 0.00226900 -0.00003600 0.05374600
v 0.00000000 0.00155900 0.05380400
v 0.00000000 0.00155900 0.05380400
v 0.00000000 0.00155900 0.05380400
v 0.00000000 0.00155900 0.05380400
v 0.00000000 0.00155900 0.05380400
v 0.00000000 0.00155900 0.05380400
v 0.00000000 0.00155900 0.05380400
v 0.00000000 0.00155900 0.05380400
v 0.00000000 0.00155900 0.05380400
v 0.00000000 0.00148900 0.04500000
v 0.00000000 0.00148900 0.04500000
v 0.00000000 0.00148900 0.04500000
v 0.00000000 0.00148900 0.04500000
v 0.00000000 0.00148900 0.04500000
v 0.00000000 0.00148900 0.04500000
v 0.00000000 0.00148900 0.04500000
v 0.00000000 0.00148900 0.04500000
v 0.00000000 0.00156100 0.03619600
v 0.00000000 0.00156100 0.03619600
v 0.00000000 0.00156100 0.03619600
v 0.00000000 0.00156100 0.03619600
v 0.00000000 0.00156100 0.03619600
v 0.00000000 0.00156100 0.03619600
v 0.00000000 0.00156100 0.03619600
v 0.00227000 -0.00003400 0.03624900
v 0.00227000 -0.00003400 0.03624900
v 0.00227000 -0.00003400 0.03624900
v 0.00227000 -0.00003400 0.03624900
v 0.00224800 -0.00007600 0.04275200
v 0.00224800 -0.00007600 0.04275200
v 0.00224800 -0.00007600 0.04275200
v 0.00224800 -0.00007600 0.04275200
v 0.00224800 -0.00007600 0.04275200
v 0.00224800 -0.00007600 0.04275200
v -0.00226200 -0.00008400 0.04726300
v -0.00226200 -0.00008400 0.04726300
v -0.00226200 -0.00008400 0.04726300
v -0.00226200 -0.00008400 0.04726300
v -0.00226200 -0.00008400 0.04726300
v -0.00226200 -0.00008400 0.04726300
v -0.00226200 -0.00008400 0.04726300
v -0.00226200 -0.00008400 0.04726300
v -0.00569200 0.00001100 0.05360400
v -0.00569200 0.00001100 0.05360400
v -0.00569200 0.00001100 0.05360400
v -0.00569200 0.00001100 0.05360400
v -0.00569200 0.00001100 0.05360400
v -0.00569200 0.00001100 0.05360400
v 0.00686900 0.00935200 0.05310300
v 0.00686900 0.00935200 0.05310300
v 0.00686900 0.00935200 0.05310300
v 0.00686900 0.00935200 0.05310300
v 0.00686900 0.00935200 0.05310300
v 0.00686900 0.00935200 0.05310300
v -0.00786100 0.00935500 0.05219100
v -0.00786100 0.00935500 0.05219100
v -0.00786100 0.00935500 0.05219100
v -0.00786100 0.00935500 0.05219100
v -0.00786100 0.00935500 0.05219100
v 0.00344500 0.00938700 0.04705700
v 0.00344500 0.00938700 0.04705700
v 0.00344500 0.00938700 0.04705700
v 0.00344500 0.00938700 0.04705700
v 0.00344500 0.00938700 0.04705700
v 0.00878600 0.00934800 0.05057100
v 0.00878600 0.00934800 0.05057100
v 0.00878600 0.00934800 0.05057100
v 0.00878600 0.00934800 0.05057100
v 0.00878600 0.00934800 0.05057100
v 0.00878600 0.00934800 0.05057100
v 0.00878600 0.00934800 0.05057100
v 0.00878600 0.00934800 0.05057100
v 0.00392400 0.00939000 0.04573400
v 0.00392400 0.00939000 0.04573400
v 0.00392400 0.00939000 0.04573400
v 0.00392400 0.00939000 0.04573400
v 0.00392400 0.00939000 0.04573400
v 0.00392400 0.00939000 0.04573400
v 0.00392400 0.00939000 0.04573400
v -0.00073000 0.00939200 0.04108000
v -0.00073000 0.00939200 0.04108000
v -0.00073000 0.00939200 0.04108000
v -0.00073000 0.00939200 0.04108000
v -0.00073000 0.00939200 0.04108000
v -0.00073000 0.00939200 0.04108000
v -0.00073000 0.00939200 0.04108000
v 0.00303800 0.00943400 0.04465300
v 0.00303800 0.00943400 0.04465300
v 0.00303800 0.00943400 0.04465300
v 0.00303800 0.00943400 0.04465300
v 0.00303800 0.00943400 0.04465300
v 0.00303800 0.00943400 0.04465300
v 0.00073400 0.00939000 0.04107700
v 0.00073400 0.00939000 0.04107700
v 0.00073400 0.00939000 0.04107700
v 0.00073400 0.00939000 0.04107700
v 0.00073400 0.00939000 0.04107700
v 0.00073400 0.00939000 0.04107700
v 0.00205700 0.00938700 0.04155500
v 0.00205700 0.00938700 0.04155500
v 0.00205700 0.00938700 0.04155500
v 0.00205700 0.00938700 0.04155500
v 0.00205700 0.00938700 0.04155500
v 0.00205700 0.00938700 0.04155500
v 0.00473000 0.00935100 0.05390000
v 0.00473000 0.00935100 0.05390000
v 0.00473000 0.00935100 0.05390000
v 0.00473000 0.00935100 0.05390000
v 0.00473000 0.00935100 0.05390000
v 0.00473000 0.00935100 0.05390000
v -0.00073300 0.00939000 0.04892300
v -0.00073300 0.00939000 0.04892300
v -0.00073300 0.00939000 0.04892300
v -0.00073300 0.00939000 0.04892300
v -0.00073300 0.00939000 0.04892300
v -0.00073300 0.00939000 0.04892300
v -0.00073300 0.00939000 0.04892300
v -0.00073300 0.00939000 0.04892300
v -0.00205600 0.00938700 0.04844500
v -0.00205600 0.00938700 0.04844500
v -0.00205600 0.00938700 0.04844500
v -0.00205600 0.00938700 0.04844500
v -0.00205600 0.00938700 0.04844500
v 0.00707500 -0.00001900 0.05276900
v 0.00707500 -0.00001900 0.05276900
v 0.00707500 -0.00001900 0.05276900
v 0.00707500 -0.00001900 0.05276900
v 0.00707500 -0.00001900 0.05276900
v 0.00867500 -0.00000700 0.05031900
v 0.00867500 -0.00000700 0.05031900
v 0.00867500 -0.00000700 0.05031900
v 0.00867500 -0.00000700 0.05031900
v 0.00867500 -0.00000700 0.05031900
v 0.00749300 0.00939500 0.04425100
v 0.00749300 0.00939500 0.04425100
v 0.00749300 0.00939500 0.04425100
v 0.00749300 0.00939500 0.04425100
v 0.00749300 0.00939500 0.04425100
v 0.00749300 0.00939500 0.04425100
v 0.00749300 0.00939500 0.04425100
v 0.00733100 0.00144200 0.04408000
v 0.00733100 0.00144200 0.04408000
v 0.00733100 0.00144200 0.04408000
v 0.00733100 0.00144200 0.04408000
v 0.00733100 0.00144200 0.04408000
v 0.00411500 0.00143400 0.04404100
v 0.00411500 0.00143400 0.04404100
v 0.00411500 0.00143400 0.04404100
v 0.00411500 0.00143400 0.04404100
v 0.00091400 0.00144000 0.04092500
v 0.00091400 0.00144000 0.04092500
v 0.00091400 0.00144000 0.04092500
v 0.00091400 0.00144000 0.04092500
v 0.00267500 0.00142800 0.04171300
v 0.00267500 0.00142800 0.04171300
v 0.00267500 0.00142800 0.04171300
v 0.00267500 0.00142800 0.04171300
v 0.00267500 0.00142800 0.04171300
v 0.00267500 0.00142800 0.04171300
v 0.00267500 0.00142800 0.04171300
v -0.00091600 0.00144200 0.03767300
v -0.00091600 0.00144200 0.03767300
v -0.00091600 0.00144200 0.03767300
v -0.00091600 0.00144200 0.03767300
v -0.00091600 0.00144200 0.03767300
v -0.00407300 0.00144200 0.04409000
v -0.00407300 0.00144200 0.04409000
v -0.00407300 0.00144200 0.04409000
v -0.00394500 0.00940000 0.04425400
v -0.00394500 0.00940000 0.04425400
v -0.00394500 0.00940000 0.04425400
v -0.00394500 0.00940000 0.04425400
v -0.00394500 0.00940000 0.04425400
v -0.00394500 0.00940000 0.04425400
v -0.00394500 0.00940000 0.04425400
v -0.00394500 0.00940000 0.04425400
v -0.00270700 0.00938400 0.04193900
v -0.00270700 0.00938400 0.04193900
v -0.00270700 0.00938400 0.04193900
v -0.00270700 0.00938400 0.04193900
v -0.00270700 0.00938400 0.04193900
v -0.00270700 0.00938400 0.04193900
v -0.00270700 0.00938400 0.04193900
v -0.00304500 0.00142000 0.04195700
v -0.00304500 0.00142000 0.04195700
v -0.00304500 0.00142000 0.04195700
v -0.00304500 0.00142000 0.04195700
v -0.00304500 0.00142000 0.04195700
v -0.00304500 0.00142000 0.04195700
v -0.00304500 0.00142000 0.04195700
v -0.00749200 0.00939400 0.03750200
v -0.00749200 0.00939400 0.03750200
v -0.00749200 0.00939400 0.03750200
v -0.00749200 0.00939400 0.03750200
v -0.00090900 0.00144200 0.04092700
v -0.00090900 0.00144200 0.04092700
v -0.00090900 0.00144200 0.04092700
v -0.00090900 0.00144200 0.04092700
v -0.00497200 0.00939300 0.05243800
v -0.00497200 0.00939300 0.05243800
v -0.00497200 0.00939300 0.05243800
v -0.00497200 0.00939300 0.05243800
v -0.00497200 0.00939300 0.05243800
v -0.00714100 0.00143100 0.05044200
v -0.00714100 0.00143100 0.05044200
v -0.00714100 0.00143100 0.05044200
v -0.00714100 0.00143100 0.05044200
v -0.00714100 0.00143100 0.05044200
v -0.00725800 0.00938800 0.05068900
v -0.00725800 0.00938800 0.05068900
v -0.00725800 0.00938800 0.05068900
v -0.00725800 0.00938800 0.05068900
v -0.00725800 0.00938800 0.05068900
v -0.00725800 0.00938800 0.05068900
v -0.00725800 0.00938800 0.05068900
v -0.00725800 0.00938800 0.05068900
v -0.00749200 0.00939500 0.04574900
v -0.00749200 0.00939500 0.04574900
v -0.00749200 0.00939500 0.04574900
v -0.00749200 0.00939500 0.04574900
v -0.00749200 0.00939500 0.04574900
v -0.00411500 0.00143300 0.04595900
v -0.00411500 0.00143300 0.04595900
v -0.00411500 0.00143300 0.04595900
v -0.00411500 0.00143300 0.04595900
v -0.00411500 0.00143300 0.04595900
v -0.00091300 0.00144000 0.04907500
v -0.00091300 0.00144000 0.04907500
v -0.00091300 0.00144000 0.04907500
v -0.00091300 0.00144000 0.04907500
v -0.00091300 0.00144000 0.04907500
v -0.00267500 0.00142700 0.04828700
v -0.00267500 0.00142700 0.04828700
v -0.00267500 0.00142700 0.04828700
v -0.00267500 0.00142700 0.04828700
v -0.00267500 0.00142700 0.04828700
v -0.00267500 0.00142700 0.04828700
v -0.00091600 0.00144300 0.05232800
v -0.00091600 0.00144300 0.05232800
v -0.00091600 0.00144300 0.05232800
v -0.00091600 0.00144300 0.05232800
v -0.00091600 0.00144300 0.05232800
v -0.00509000 0.00143200 0.05222800
v -0.00509000 0.00143200 0.05222800
v -0.00509000 0.00143200 0.05222800
v -0.00509000 0.00143200 0.05222800
v -0.00509000 0.00143200 0.05222800
v -0.00509000 0.00143200 0.05222800
v 0.00736500 0.00939400 0.05032700
v 0.00736500 0.00939400 0.05032700
v 0.00736500 0.00939400 0.05032700
v 0.00736500 0.00939400 0.05032700
v 0.00736500 0.00939400 0.05032700
v 0.00736500 0.00939400 0.05032700
v 0.00736500 0.00939400 0.05032700
v 0.00492500 0.00143700 0.05226300
v 0.00492500 0.00143700 0.05226300
v 0.00492500 0.00143700 0.05226300
v 0.00492500 0.00143700 0.05226300
v 0.00492500 0.00143700 0.05226300
v 0.00534400 0.00938600 0.05235600
v 0.00534400 0.00938600 0.05235600
v 0.00534400 0.00938600 0.05235600
v 0.00534400 0.00938600 0.05235600
v 0.00534400 0.00938600 0.05235600
v 0.00534400 0.00938600 0.05235600
v 0.00534400 0.00938600 0.05235600
v 0.00091600 0.00144400 0.05232700
v 0.00091600 0.00144400 0.05232700
v 0.00091600 0.00144400 0.05232700
v 0.00091600 0.00144400 0.05232700
v 0.00091600 0.00144400 0.05232700
v 0.00075000 0.00939500 0.05249200
v 0.00075000 0.00939500 0.05249200
v 0.00075000 0.00939500 0.05249200
v 0.00075000 0.00939500 0.05249200
v 0.00075000 0.00939500 0.05249200
v 0.00075000 0.00939500 0.05249200
v 0.00075000 0.00939500 0.05249200
v 0.00095900 0.00143300 0.04911500
v 0.00095900 0.00143300 0.04911500
v 0.00095900 0.00143300 0.04911500
v 0.00095900 0.00143300 0.04911500
v 0.00095900 0.00143300 0.04911500
v 0.00407600 0.00144000 0.04591300
v 0.00407600 0.00144000 0.04591300
v 0.00407600 0.00144000 0.04591300
v 0.00407600 0.00144000 0.04591300
v 0.00407600 0.00144000 0.04591300
v 0.00328700 0.00142700 0.04767600
v 0.00328700 0.00142700 0.04767600
v 0.00328700 0.00142700 0.04767600
v 0.00328700 0.00142700 0.04767600
v 0.00328700 0.00142700 0.04767600
v 0.00328700 0.00142700 0.04767600
v 0.00328700 0.00142700 0.04767600
v 0.00731000 0.00143600 0.04958100
v 0.00731000 0.00143600 0.04958100
v 0.00731000 0.00143600 0.04958100
v 0.00731000 0.00143600 0.04958100
v 0.00731000 0.00143600 0.04958100
v 0.00660800 0.00141300 0.05116900
v 0.00660800 0.00141300 0.05116900
v 0.00660800 0.00141300 0.05116900
v 0.00660800 0.00141300 0.05116900
v 0.00660800 0.00141300 0.05116900
v -0.00196700 0.01089000 0.04407700
v -0.00196700 0.01089000 0.04407700
v -0.00196700 0.01089000 0.04407700
v -0.00196700 0.01089000 0.04407700
v -0.00196700 0.01089000 0.04407700
v -0.00196700 0.01089000 0.04407700
v -0.00245500 0.01089600 0.04326900
v -0.00245500 0.01089600 0.04326900
v -0.00245500 0.01089600 0.04326900
v -0.00245500 0.01089600 0.04326900
v -0.00245500 0.01089600 0.04326900
v -0.00245500 0.01089600 0.04326900
v -0.00072300 0.01089500 0.04287800
v -0.00072300 0.01089500 0.04287800
v -0.00072300 0.01089500 0.04287800
v -0.00072300 0.01089500 0.04287800
v -0.00072300 0.01089500 0.04287800
v -0.00072300 0.01089500 0.04287800
v -0.00072300 0.01089500 0.04287800
v -0.00072300 0.01089500 0.04287800
v 0.00215500 0.00941800 0.04456400
v 0.00215500 0.00941800 0.04456400
v 0.00215500 0.00941800 0.04456400
v 0.00215500 0.00941800 0.04456400
v 0.00215500 0.00941800 0.04456400
v 0.00215500 0.00941800 0.04456400
v 0.00072200 0.00943400 0.04299000
v 0.00072200 0.00943400 0.04299000
v 0.00072200 0.00943400 0.04299000
v 0.00072200 0.00943400 0.04299000
v 0.00072200 0.00943400 0.04299000
v 0.00072200 0.00943400 0.04299000
v 0.00072200 0.00943400 0.04299000
v 0.00144800 0.00942900 0.04656800
v 0.00144800 0.00942900 0.04656800
v 0.00144800 0.00942900 0.04656800
v 0.00144800 0.00942900 0.04656800
v 0.00144800 0.00942900 0.04656800
v 0.00144800 0.00942900 0.04656800
v 0.00086100 0.00191300 0.04643500
v 0.00086100 0.00191300 0.04643500
v 0.00086100 0.00191300 0.04643500
v 0.00086100 0.00191300 0.04643500
v 0.00086100 0.00191300 0.04643500
v 0.00152600 0.00191200 0.04408200
v 0.00152600 0.00191200 0.04408200
v 0.00152600 0.00191200 0.04408200
v 0.00152600 0.00191200 0.04408200
v 0.00152600 0.00191200 0.04408200
v -0.00781800 -0.00004000 0.05191800
v -0.00781800 -0.00004000 0.05191800
v -0.00781800 -0.00004000 0.05191800
v -0.00781800 -0.00004000 0.05191800
v -0.00781800 -0.00004000 0.05191800
v -0.00877200 0.00002800 0.03626400
v -0.00877200 0.00002800 0.03626400
v -0.00877200 0.00002800 0.03626400
v -0.00889300 0.00934200 0.04990000
v -0.00889300 0.00934200 0.04990000
v -0.00889300 0.00934200 0.04990000
v -0.00889300 0.00934200 0.04990000
v -0.00889300 0.00934200 0.04990000
v -0.00889300 0.00934200 0.04990000
v -0.00889300 0.00934200 0.04990000
v -0.00889300 0.00934200 0.04990000
v 0.00876300 0.00001100 0.03626600
v 0.00876300 0.00001100 0.03626600
v 0.00876300 0.00001100 0.03626600
v 0.00876300 0.00001100 0.03626600
v -0.00534000 0.00935500 0.05381900
v -0.00534000 0.00935500 0.05381900
v -0.00534000 0.00935500 0.05381900
v -0.00534000 0.00935500 0.05381900
v -0.00534000 0.00935500 0.05381900
v -0.00534000 0.00935500 0.05381900
v -0.00534000 0.00935500 0.05381900
v -0.00534000 0.00935500 0.05381900
v -0.00733200 0.00144300 0.04408000
v -0.00733200 0.00144300 0.04408000
v -0.00733200 0.00144300 0.04408000
v -0.00733200 0.00144300 0.04408000
v -0.00733200 0.00144300 0.04408000
v -0.00749700 0.00939500 0.04424700
v -0.00749700 0.00939500 0.04424700
v -0.00749700 0.00939500 0.04424700
v -0.00749700 0.00939500 0.04424700
v -0.00749700 0.00939500 0.04424700
v -0.00749700 0.00939500 0.04424700
v -0.00749700 0.00939500 0.04424700
v -0.00749700 0.00939500 0.04424700
v -0.00733300 0.00144300 0.03767200
v -0.00733300 0.00144300 0.03767200
v -0.00733300 0.00144300 0.03767200
v -0.00733300 0.00144300 0.03767200
v -0.00733300 0.00144300 0.03767200
v -0.00733300 0.00144300 0.03767200
v -0.00075600 0.00939400 0.03750200
v -0.00075600 0.00939400 0.03750200
v -0.00075600 0.00939400 0.03750200
v -0.00075600 0.00939400 0.03750200
v -0.00075600 0.00939400 0.03750200
v -0.00075600 0.00939400 0.03750200
v 0.00254600 0.00943700 0.04679800
v 0.00254600 0.00943700 0.04679800
v 0.00254600 0.00943700 0.04679800
v 0.00254600 0.00943700 0.04679800
v 0.00254600 0.00943700 0.04679800
v 0.00254600 0.00943700 0.04679800
v 0.00254600 0.00943700 0.04679800
v 0.00207800 0.00943400 0.04267500
v 0.00207800 0.00943400 0.04267500
v 0.00207800 0.00943400 0.04267500
v 0.00207800 0.00943400 0.04267500
v 0.00207800 0.00943400 0.04267500
v 0.00207800 0.00943400 0.04267500
v 0.00207800 0.00943400 0.04267500
v 0.00733300 0.00144200 0.03767300
v 0.00733300 0.00144200 0.03767300
v 0.00733300 0.00144200 0.03767300
v 0.00733300 0.00144200 0.03767300
v 0.00733300 0.00144200 0.03767300
v 0.00749800 0.00939400 0.03750700
v 0.00749800 0.00939400 0.03750700
v 0.00749800 0.00939400 0.03750700
v 0.00749800 0.00939400 0.03750700
v 0.00749800 0.00939400 0.03750700
v 0.00091600 0.00144200 0.03767300
v 0.00091600 0.00144200 0.03767300
v 0.00091600 0.00144200 0.03767300
v 0.00091600 0.00144200 0.03767300
v 0.00091600 0.00144200 0.03767300
v 0.00091600 0.00144200 0.03767300
v 0.00392300 0.00939000 0.04426700
v 0.00392300 0.00939000 0.04426700
v 0.00392300 0.00939000 0.04426700
v 0.00392300 0.00939000 0.04426700
v 0.00392300 0.00939000 0.04426700
v 0.00392300 0.00939000 0.04426700
v 0.00392300 0.00939000 0.04426700
v 0.00075400 0.00939500 0.03750300
v 0.00075400 0.00939500 0.03750300
v 0.00075400 0.00939500 0.03750300
v 0.00075400 0.00939500 0.03750300
v 0.00075400 0.00939500 0.03750300
v 0.00075400 0.00939500 0.03750300
v 0.00075400 0.00939500 0.03750300
v 0.00337600 0.00939100 0.04281500
v 0.00337600 0.00939100 0.04281500
v 0.00337600 0.00939100 0.04281500
v 0.00337600 0.00939100 0.04281500
v 0.00337600 0.00939100 0.04281500
v 0.00337600 0.00939100 0.04281500
v -0.00733200 0.00144400 0.04592000
v -0.00733200 0.00144400 0.04592000
v -0.00733200 0.00144400 0.04592000
v -0.00733200 0.00144400 0.04592000
v -0.00733200 0.00144400 0.04592000
v -0.00392300 0.00939000 0.04573300
v -0.00392300 0.00939000 0.04573300
v -0.00392300 0.00939000 0.04573300
v -0.00392300 0.00939000 0.04573300
v -0.00392300 0.00939000 0.04573300
v -0.00392300 0.00939000 0.04573300
v -0.00392300 0.00939000 0.04573300
v -0.00075400 0.00939500 0.05249700
v -0.00075400 0.00939500 0.05249700
v -0.00075400 0.00939500 0.05249700
v -0.00075400 0.00939500 0.05249700
v -0.00075400 0.00939500 0.05249700
v -0.00337500 0.00939100 0.04718500
v -0.00337500 0.00939100 0.04718500
v -0.00337500 0.00939100 0.04718500
v -0.00337500 0.00939100 0.04718500
v -0.00337500 0.00939100 0.04718500
v -0.00337500 0.00939100 0.04718500
v 0.00733200 0.00144300 0.04592000
v 0.00733200 0.00144300 0.04592000
v 0.00733200 0.00144300 0.04592000
v 0.00733200 0.00144300 0.04592000
v 0.00733200 0.00144300 0.04592000
v 0.00073400 0.00939000 0.04892300
v 0.00073400 0.00939000 0.04892300
v 0.00073400 0.00939000 0.04892300
v 0.00073400 0.00939000 0.04892300
v 0.00073400 0.00939000 0.04892300
v 0.00073400 0.00939000 0.04892300
v 0.00749700 0.00939500 0.04575400
v 0.00749700 0.00939500 0.04575400
v 0.00749700 0.00939500 0.04575400
v 0.00749700 0.00939500 0.04575400
v 0.00749700 0.00939500 0.04575400
v 0.00749700 0.00939500 0.04575400
v 0.00218600 0.00939100 0.04837500
v 0.00218600 0.00939100 0.04837500
v 0.00218600 0.00939100 0.04837500
v 0.00218600 0.00939100 0.04837500
v 0.00218600 0.00939100 0.04837500
v 0.00218600 0.00939100 0.04837500
v -0.00215300 0.01088700 0.04542000
v -0.00215300 0.01088700 0.04542000
v -0.00215300 0.01088700 0.04542000
v -0.00215300 0.01088700 0.04542000
v -0.00215300 0.01088700 0.04542000
v -0.00215300 0.01088700 0.04542000
v -0.00107000 0.01088400 0.04698100
v -0.00107000 0.01088400 0.04698100
v -0.00107000 0.01088400 0.04698100
v -0.00107000 0.01088400 0.04698100
v -0.00107000 0.01088400 0.04698100
v -0.00107000 0.01088400 0.04698100
v -0.00300900 0.01089400 0.04527900
v -0.00300900 0.01089400 0.04527900
v -0.00300900 0.01089400 0.04527900
v -0.00300900 0.01089400 0.04527900
v -0.00300900 0.01089400 0.04527900
v -0.00300900 0.01089400 0.04527900
v -0.00187100 0.01090700 0.04741100
v -0.00187100 0.01090700 0.04741100
v -0.00187100 0.01090700 0.04741100
v -0.00187100 0.01090700 0.04741100
v -0.00187100 0.01090700 0.04741100
v -0.00187100 0.01090700 0.04741100
v -0.00880400 0.00155900 0.04500000
v -0.00880400 0.00155900 0.04500000
v -0.00880400 0.00155900 0.04500000
v -0.00880400 0.00155900 0.04500000
v -0.00880400 0.00155900 0.04500000
v -0.00880400 0.00155900 0.04500000
v -0.00880400 0.00155900 0.04500000
v -0.00880400 0.00155900 0.04500000
v 0.00880900 0.00156500 0.04500000
v 0.00880900 0.00156500 0.04500000
v 0.00880900 0.00156500 0.04500000
v 0.00880900 0.00156500 0.04500000
v 0.00880900 0.00156500 0.04500000
v 0.00880900 0.00156500 0.04500000
v 0.00880900 0.00156500 0.04500000
v 0.00880900 0.00156500 0.04500000
f 21 744 15
f 23 745 16
f 25 3 748
f 5 29 743
f 10 750 28
f 37 40 48
f 38 341 39
f 56 452 119
f 54 70 450
f 74 79 88
f 96 101 82
f 115 130 110
f 105 128 286
f 285 129 117
f 112 123 134
f 120 36 98
f 288 116 104
f 100 141 83
f 34 136 102
f 33 147 137
f 138 150 85
f 81 151 91
f 140 157 152
f 440 168 178
f 439 445 169
f 171 446 180
f 447 93 183
f 163 189 197
f 198 187 191
f 166 181 199
f 182 165 201
f 206 213 216
f 194 221 211
f 186 222 195
f 75 86 223
f 89 214 209
f 87 208 219
f 231 235 241
f 233 249 254
f 260 247 232
f 154 156 259
f 227 155 234
f 236 149 255
f 261 250 248
f 262 274 251
f 92 229 215
f 90 153 228
f 325 106 277
f 108 284 283
f 124 113 335
f 336 114 292
f 301 340 302
f 230 308 312
f 225 310 218
f 313 207 217
f 243 306 226
f 323 176 311
f 353 280 333
f 351 327 279
f 350 291 326
f 337 294 349
f 330 278 320
f 346 329 321
f 309 318 316
f 307 344 317
f 244 355 304
f 361 357 242
f 237 363 240
f 364 372 360
f 358 377 356
f 373 378 359
f 252 365 238
f 239 366 362
f 374 305 354
f 375 298 303
f 385 210 203
f 387 205 314
f 386 380 204
f 388 172 382
f 170 392 383
f 177 389 315
f 174 167 390
f 391 193 384
f 381 192 212
f 160 135 403
f 159 396 257
f 158 402 395
f 401 406 397
f 407 414 398
f 413 418 400
f 142 410 405
f 143 404 139
f 419 245 258
f 420 256 399
f 76 224 422
f 434 424 427
f 433 78 421
f 80 77 432
f 423 162 430
f 161 179 429
f 428 185 435
f 188 164 426
f 190 425 220
f 436 94 84
f 184 97 431
f 281 289 437
f 290 443 438
f 35 118 343
f 345 122 449
f 456 463 125
f 338 460 126
f 293 111 107
f 324 295 109
f 409 145 467
f 408 468 415
f 469 263 412
f 411 264 417
f 246 416 265
f 50 144 32
f 462 53 131
f 58 121 132
f 127 461 133
f 253 272 367
f 368 271 370
f 269 471 369
f 371 474 379
f 475 297 376
f 287 99 444
f 342 300 46
f 95 448 103
f 451 328 339
f 73 331 453
f 352 71 454
f 348 332 66
f 455 334 347
f 442 319 282
f 175 322 441
f 200 196 394
f 173 202 393
f 466 480 266
f 470 146 477
f 498 501 483
f 502 493 481
f 497 512 503
f 505 514 499
f 518 552 523
f 535 547 522
f 544 546 538
f 511 510 539
f 543 506 548
f 541 534 531
f 521 732 537
f 570 731 520
f 564 30 555
f 557 31 565
f 26 1 566
f 561 7 27
f 569 2 586
f 560 575 8
f 580 581 9
f 4 22 587
f 24 20 589
f 573 736 582
f 590 19 596
f 18 597 594
f 577 757 735
f 11 600 17
f 739 610 12
f 762 609 740
f 13 606 598
f 756 605 759
f 576 604 755
f 579 620 611
f 613 622 578
f 627 636 614
f 642 638 626
f 464 457 625
f 458 644 628
f 69 643 459
f 629 63 465
f 486 492 645
f 490 654 647
f 296 472 660
f 661 473 276
f 68 655 488
f 67 491 709
f 45 662 656
f 43 657 65
f 648 59 482
f 485 55 668
f 476 52 650
f 646 51 61
f 664 671 487
f 665 618 673
f 683 617 677
f 682 674 615
f 675 559 718
f 678 722 681
f 689 694 707
f 603 693 691
f 633 692 621
f 703 705 635
f 637 704 697
f 698 710 494
f 639 713 700
f 41 60 47
f 64 57 44
f 663 270 653
f 268 651 275
f 273 652 658
f 267 478 649
f 567 519 528
f 553 568 525
f 716 556 526
f 717 527 721
f 563 714 723
f 602 687 725
f 593 599 726
f 591 728 533
f 733 592 530
f 730 529 536
f 608 623 696
f 632 640 711
f 601 607 695
f 595 734 585
f 729 571 588
f 715 558 554
f 641 72 712
f 572 562 676
f 42 299 659
f 619 574 679
f 631 616 667
f 489 504 702
f 666 62 630
f 701 516 706
f 500 515 699
f 49 479 148
f 517 542 686
f 513 690 708
f 727 688 540
f 724 545 532
f 720 524 551
f 550 507 680
f 549 684 719
f 495 484 669
f 509 670 685
f 508 496 672
f 14 753 742
f 761 741 752
f 584 749 6
f 583 737 751
f 738 758 746
f 754 760 747
f 624 612 634
f 766 773 823
f 821 774 778
f 913 866 781
f 862 789 783
f 771 790 779
f 780 786 797
f 777 799 806
f 792 802 775
f 787 812 798
f 810 815 795
f 794 817 819
f 818 768 820
f 785 828 811
f 827 840 809
f 832 835 847
f 813 839 814
f 845 851 858
f 838 852 843
f 842 767 816
f 857 853 864
f 849 872 863
f 861 873 788
f 870 824 784
f 882 854 888
f 890 855 874
f 871 848 880
f 875 850 837
f 841 825 765
f 826 868 764
f 763 867 769
f 770 869 884
f 895 877 900
f 886 878 896
f 898 879 830
f 876 836 831
f 772 881 793
f 791 883 804
f 885 889 800
f 803 887 893
f 834 844 906
f 846 860 904
f 808 892 909
f 801 894 805
f 903 859 912
f 856 865 911
f 891 901 910
f 907 899 916
f 897 829 915
f 917 833 902
f 905 914 782
f 905 782 796
f 905 796 822
f 908 905 822
f 908 822 776
f 908 918 905
f 908 776 807
f 970 921 928
f 1056 1009 931
f 1006 936 930
f 919 940 926
f 933 935 946
f 929 953 958
f 941 950 927
f 937 960 948
f 959 966 944
f 945 965 969
f 963 922 968
f 938 978 962
f 986 989 984
f 983 990 996
f 961 977 967
f 993 1004 997
f 1003 1012 1007
f 1005 1015 934
f 1013 976 939
f 1026 994 985
f 1016 992 1023
f 1011 1001 991
f 924 974 1031
f 1033 973 1019
f 1022 1010 1028
f 975 1014 1017
f 964 972 920
f 1020 1027 1034
f 1036 1024 1044
f 1025 987 1043
f 1045 988 980
f 923 1029 942
f 943 1030 949
f 1032 1018 951
f 954 1021 1038
f 981 998 1050
f 995 999 1046
f 955 1035 1054
f 952 1037 957
f 1047 1000 1057
f 1002 1008 1058
f 1039 1040 1053
f 1052 1042 1061
f 1041 982 1060
f 1059 979 1049
f 925 947 971
f 1051 1055 932
f 1051 1048 1055
f 1051 1062 1048
f 1051 932 956
f 956 932 947
f 956 947 925
f 1228 1236 1240
f 1235 1246 1241
f 1248 1157 1244
f 1242 1154 1653
f 1148 1237 1229
f 1142 1814 1137
f 1811 1818 1136
f 1639 1625 1131
f 1135 1820 1124
f 1128 1626 1118
f 1630 1611 1119
f 1117 1612 1138
f 1614 1813 1141
f 1168 1204 1821
f 1169 1825 1619
f 1184 1075 1827
f 1190 1183 1073
f 1176 1170 1622
f 1175 1621 1253
f 1198 1174 1252
f 1195 1254 1086
f 1199 1187 1828
f 1205 1829 1823
f 1298 1260 1303
f 1296 1429 1257
f 1434 1428 1301
f 1263 1437 1295
f 1679 1266 1335
f 1677 1333 1332
f 1346 1270 1352
f 1341 1351 1662
f 1345 1660 1275
f 1344 1274 1276
f 1280 1285 1290
f 1279 1291 1667
f 1841 1436 1261
f 1842 1370 1435
f 1218 1369 1844
f 1265 1219 1845
f 1678 1220 1264
f 1837 1277 1272
f 1672 1838 1273
f 1209 1292 1834
f 1214 1665 1293
f 1213 1839 1670
f 1294 1302 1311
f 1317 1299 1308
f 1325 1329 1337
f 1326 1334 1318
f 1343 1316 1313
f 1342 1305 1269
f 1327 1314 1284
f 1283 1323 1287
f 1208 1282 1666
f 1322 1281 1207
f 1221 1331 1328
f 1217 1676 1330
f 1226 1324 1206
f 1310 1409 1686
f 1309 1680 1347
f 1312 1348 1268
f 1259 1307 1304
f 1255 1411 1306
f 1167 1482 1477
f 1171 1173 1486
f 1374 1438 1797
f 1804 1718 1178
f 1683 1520 1359
f 1732 1222 1750
f 1685 1506 1519
f 1439 1225 1734
f 1376 1224 1440
f 1223 1211 1752
f 1754 1212 1712
f 1497 1210 1700
f 1693 1215 1674
f 1360 1518 1669
f 1803 1365 1717
f 1355 1555 1568
f 1517 1525 1668
f 1681 1777 1507
f 1357 1372 1553
f 1197 1481 1172
f 1367 1378 1715
f 1193 1390 1487
f 1719 1382 1394
f 1687 1581 1778
f 1524 1695 1675
f 1380 1745 1392
f 1192 1401 1387
f 1720 1407 1194
f 1196 1403 1402
f 1747 1758 1396
f 1682 1410 1577
f 1582 1415 1779
f 1523 1774 1694
f 1395 1761 1721
f 1426 1189 1780
f 1725 1757 1404
f 1496 1711 1216
f 1381 1799 1749
f 1186 1202 1784
f 1373 1801 1559
f 1422 1188 1427
f 1785 1201 1768
f 1414 1567 1583
f 1416 1179 1185
f 1399 1751 1386
f 1578 1796 1421
f 1384 1755 1707
f 1770 1473 1697
f 1769 1200 1479
f 1793 1177 1420
f 1800 1444 1748
f 1203 1166 1480
f 1356 1570 1413
f 1805 1182 1791
f 1371 1358 1430
f 1375 1432 1433
f 1353 1258 1431
f 1354 1412 1256
f 1363 1661 1349
f 1684 1362 1350
f 1671 1271 1664
f 1361 1673 1663
f 1442 1730 1447
f 1735 1728 1443
f 1746 1445 1451
f 1441 1446 1744
f 1455 1398 1408
f 1462 1457 1405
f 1464 1406 1762
f 1452 1463 1759
f 1450 1760 1743
f 1738 1400 1454
f 1737 1753 1397
f 1731 1733 1739
f 1742 1736 1756
f 1460 1741 1456
f 1729 1740 1461
f 1448 1459 1453
f 1449 1727 1458
f 1701 1710 1498
f 1468 1709 1706
f 1385 1466 1499
f 1708 1465 1388
f 1490 1475 1485
f 1491 1471 1474
f 1502 1484 1389
f 1500 1492 1483
f 1478 1690 1696
f 1476 1470 1691
f 1705 1698 1692
f 1704 1495 1699
f 1494 1467 1702
f 1488 1703 1688
f 1501 1469 1489
f 1472 1493 1689
f 1511 1515 1550
f 1514 1505 1549
f 1763 1513 1508
f 1765 1522 1516
f 1767 1772 1521
f 1526 1773 1764
f 1534 1417 1423
f 1536 1533 1424
f 1537 1425 1781
f 1527 1540 1782
f 1528 1783 1771
f 1418 1545 1776
f 1419 1531 1544
f 1503 1546 1547
f 1775 1543 1504
f 1530 1766 1512
f 1538 1529 1509
f 1551 1539 1510
f 1548 1535 1541
f 1542 1532 1552
f 1607 1554 1605
f 1563 1569 1610
f 1571 1556 1606
f 1565 1573 1580
f 1566 1564 1576
f 1575 1794 1579
f 1588 1792 1572
f 1593 1383 1366
f 1595 1590 1364
f 1598 1368 1806
f 1584 1597 1808
f 1585 1807 1795
f 1786 1377 1592
f 1790 1798 1379
f 1558 1789 1601
f 1802 1788 1557
f 1561 1600 1587
f 1562 1586 1574
f 1602 1589 1599
f 1604 1787 1591
f 1609 1603 1594
f 1608 1596 1560
f 1624 1620 1616
f 1615 1618 1824
f 1628 1251 1617
f 1809 1613 1822
f 1629 1092 1250
f 1112 1087 1627
f 1812 1826 1832
f 1096 1089 1115
f 1083 1088 1094
f 1819 1810 1830
f 1068 1082 1093
f 1071 1101 1816
f 1074 1815 1831
f 1064 1095 1105
f 1078 1066 1107
f 1076 1110 1103
f 1077 1111 1070
f 1713 1391 1067
f 1716 1063 1080
f 1724 1191 1091
f 1180 1714 1081
f 1722 1090 1084
f 1181 1079 1072
f 1723 1085 1069
f 1393 1726 1065
f 1635 1099 1641
f 1817 1104 1122
f 1097 1113 1637
f 1125 1100 1648
f 1114 1623 1642
f 1102 1109 1645
f 1646 1108 1631
f 1106 1098 1632
f 1650 1161 1656
f 1165 1150 1655
f 1149 1147 1657
f 1658 1143 1227
f 1156 1163 1654
f 1238 1116 1139
f 1151 1636 1643
f 1145 1640 1129
f 1123 1245 1134
f 1647 1160 1159
f 1249 1234 1132
f 1133 1232 1140
f 1126 1158 1247
f 1239 1130 1120
f 1233 1146 1127
f 1644 1633 1164
f 1121 1649 1155
f 1162 1634 1153
f 1152 1638 1144
f 1652 1659 1231
f 1651 1230 1243
f 1288 1315 1836
f 1286 1835 1289
f 1340 1278 1840
f 1321 1339 1833
f 1843 1262 1300
f 1846 1297 1320
f 1847 1319 1338
f 1267 1848 1336
